<?xml version="1.0" standalone="no"?>
<!DOCTYPE svg PUBLIC "-//W3C//DTD SVG 20010904//EN"
 "http://www.w3.org/TR/2001/REC-SVG-20010904/DTD/svg10.dtd">
<svg version="1.0" xmlns="http://www.w3.org/2000/svg"
 width="3952.000000pt" height="3952.000000pt" viewBox="0 0 3952.000000 3952.000000"
 preserveAspectRatio="xMidYMid meet">
<metadata>
Created by potrace 1.11, written by Peter Selinger 2001-2013
</metadata>
<g transform="translate(0.000000,3952.000000) scale(0.100000,-0.100000)"
fill="#000000" stroke="none">
<path d="M34928 39514 c-4 -3 -112 -15 -140 -15 -10 0 -18 -5 -18 -10 0 -6 -4
-8 -9 -4 -5 3 -12 1 -16 -5 -4 -6 -11 -8 -16 -5 -5 4 -9 1 -9 -5 0 -6 -4 -8
-10 -5 -5 3 -10 1 -10 -5 0 -6 -4 -8 -10 -5 -5 3 -10 1 -10 -5 0 -6 -8 -14
-17 -17 -22 -9 -71 -62 -79 -85 -3 -11 -11 -15 -17 -12 -7 4 -9 4 -5 -1 4 -4
0 -22 -9 -39 -10 -17 -18 -34 -19 -38 -1 -5 -2 -9 -3 -10 -2 -2 -4 -14 -7 -27
-2 -14 -9 -30 -14 -36 -5 -7 -7 -15 -3 -18 3 -4 1 -7 -5 -7 -6 0 -9 -6 -6 -13
3 -8 0 -27 -7 -43 -6 -16 -13 -40 -16 -54 -2 -13 -7 -27 -11 -30 -4 -3 -8 -14
-9 -25 -2 -21 -10 -60 -13 -60 -2 0 -11 -38 -12 -52 -1 -7 -5 -13 -9 -13 -4 0
-8 -8 -8 -17 0 -17 -7 -55 -11 -60 -2 -2 -4 -7 -5 -13 -1 -5 -4 -13 -5 -17 -1
-5 -2 -12 -1 -17 1 -4 -4 -14 -10 -22 -6 -8 -9 -14 -6 -14 3 0 -1 -16 -9 -35
-8 -19 -11 -35 -8 -35 4 0 1 -7 -6 -15 -7 -8 -9 -15 -4 -15 4 0 3 -5 -3 -11
-6 -6 -9 -18 -6 -25 3 -8 1 -14 -4 -14 -5 0 -10 -12 -11 -26 -1 -15 -6 -32
-11 -38 -5 -6 -10 -14 -10 -19 -1 -8 -11 -57 -16 -72 -1 -5 -3 -13 -4 -18 0
-4 -8 -21 -16 -37 -9 -17 -13 -30 -10 -30 3 0 1 -9 -5 -21 -7 -11 -14 -31 -16
-44 -2 -12 -10 -35 -18 -51 -8 -15 -13 -31 -10 -36 3 -4 0 -8 -6 -8 -6 0 -8
-5 -4 -11 3 -6 2 -14 -4 -18 -7 -4 -13 -16 -15 -28 -1 -12 -8 -28 -15 -35 -6
-8 -9 -18 -5 -21 3 -4 0 -13 -7 -22 -7 -8 -9 -15 -5 -15 4 0 2 -6 -4 -13 -6
-8 -8 -17 -4 -20 3 -4 1 -7 -6 -7 -7 0 -10 -4 -6 -9 3 -5 1 -12 -5 -16 -6 -4
-8 -11 -5 -16 4 -5 2 -9 -3 -9 -5 0 -9 -7 -10 -15 -1 -8 -3 -22 -4 -30 -1 -8
-4 -15 -8 -15 -3 0 -6 -10 -7 -22 -1 -11 -6 -24 -10 -27 -4 -3 -9 -10 -10 -16
-2 -10 -32 -96 -51 -145 -5 -14 -11 -29 -12 -35 -1 -5 -7 -19 -13 -30 -6 -11
-12 -23 -13 -27 -1 -5 -3 -11 -4 -15 -1 -5 -2 -11 -1 -15 0 -5 -3 -8 -9 -8 -6
0 -9 -3 -8 -7 2 -9 -9 -46 -27 -88 -16 -37 -23 -58 -21 -65 0 -3 -7 -18 -17
-33 -9 -15 -14 -27 -11 -27 4 0 -1 -8 -10 -19 -9 -10 -16 -22 -14 -27 1 -5 -4
-25 -11 -44 -8 -19 -15 -40 -16 -46 -2 -6 -11 -29 -21 -50 -11 -22 -19 -41
-19 -44 -3 -20 -41 -110 -47 -110 -4 0 -5 -7 -2 -15 4 -8 1 -15 -7 -15 -7 0
-9 -3 -6 -6 3 -4 1 -16 -5 -28 -7 -11 -13 -28 -14 -36 -2 -8 -8 -16 -14 -18
-5 -2 -8 -8 -5 -13 3 -5 0 -19 -7 -31 -7 -13 -13 -25 -13 -28 -1 -3 -6 -16
-12 -30 -6 -14 -18 -42 -26 -63 -9 -20 -16 -38 -15 -40 1 -1 -5 -13 -12 -27
-8 -14 -15 -28 -16 -32 -1 -5 -3 -11 -4 -15 -1 -5 -2 -11 -1 -15 0 -5 -3 -8
-9 -8 -6 0 -9 -3 -8 -7 1 -5 -5 -21 -12 -38 -7 -16 -14 -33 -15 -37 -2 -5 -4
-10 -5 -13 -1 -3 -3 -8 -4 -12 -1 -5 -9 -24 -18 -43 -53 -114 -78 -173 -78
-186 0 -8 -5 -14 -12 -14 -6 0 -8 -3 -5 -6 3 -4 1 -16 -5 -28 -7 -11 -11 -24
-10 -28 1 -5 -3 -8 -9 -8 -5 0 -7 -4 -4 -10 3 -5 1 -10 -6 -10 -7 0 -9 -3 -6
-6 4 -4 0 -19 -7 -33 -31 -60 -60 -126 -58 -133 1 -5 -3 -8 -10 -8 -6 0 -9 -3
-5 -6 3 -4 -4 -25 -15 -48 -12 -22 -22 -43 -23 -46 0 -3 -11 -27 -24 -55 -13
-27 -23 -53 -23 -57 1 -5 -3 -8 -8 -8 -5 0 -9 -3 -8 -7 4 -15 -13 -53 -23 -53
-6 0 -8 -4 -5 -9 6 -10 -33 -91 -49 -103 -5 -4 -6 -8 -2 -8 4 0 2 -10 -5 -22
-7 -13 -11 -26 -10 -30 1 -5 -3 -8 -8 -8 -5 0 -9 -3 -9 -7 3 -21 -2 -33 -12
-28 -6 4 -9 1 -8 -6 2 -8 -5 -28 -14 -46 -9 -18 -17 -38 -17 -46 0 -8 -6 -20
-14 -26 -8 -7 -18 -26 -21 -42 -4 -16 -11 -29 -16 -29 -6 0 -7 -4 -4 -10 3 -5
1 -10 -4 -10 -6 0 -11 -9 -11 -20 0 -11 -5 -20 -11 -20 -5 0 -7 -4 -4 -10 3
-5 1 -10 -4 -10 -6 0 -11 -9 -11 -20 0 -11 -5 -20 -11 -20 -5 0 -7 -4 -4 -10
3 -5 1 -10 -5 -10 -6 0 -8 -4 -5 -10 3 -5 1 -10 -4 -10 -6 0 -11 -6 -11 -14 0
-13 -47 -105 -59 -116 -3 -3 -6 -11 -7 -17 -2 -30 -5 -34 -14 -28 -6 3 -7 -1
-4 -9 3 -9 1 -16 -5 -16 -6 0 -11 -7 -11 -15 0 -9 -10 -32 -23 -53 -13 -20
-34 -60 -47 -89 -13 -28 -29 -49 -35 -46 -5 4 -7 3 -3 -2 4 -4 -3 -26 -14 -49
-12 -22 -22 -44 -23 -48 0 -4 -8 -17 -17 -28 -10 -11 -18 -27 -18 -35 0 -8 -5
-15 -11 -15 -5 0 -7 -4 -4 -10 3 -5 2 -10 -4 -10 -5 0 -15 -16 -21 -35 -6 -19
-16 -35 -21 -35 -6 0 -7 -4 -4 -10 3 -5 1 -10 -4 -10 -6 0 -10 -3 -9 -7 3 -13
-25 -63 -34 -63 -5 0 -6 -4 -3 -10 3 -5 1 -10 -5 -10 -6 0 -8 -4 -5 -10 3 -5
1 -10 -4 -10 -6 0 -11 -7 -11 -15 0 -8 -10 -24 -22 -36 -13 -12 -16 -18 -8
-14 11 6 10 3 -3 -12 -9 -11 -15 -22 -12 -25 3 -3 -1 -11 -10 -18 -8 -7 -15
-17 -15 -22 0 -5 -9 -18 -20 -30 -10 -12 -17 -25 -14 -30 3 -4 0 -8 -6 -8 -6
0 -9 -4 -6 -8 3 -5 -4 -19 -15 -30 -11 -12 -17 -22 -14 -22 8 0 -26 -52 -45
-68 -12 -11 -12 -12 -1 -6 9 5 6 -5 -7 -23 -12 -17 -22 -36 -22 -42 0 -6 -5
-11 -11 -11 -5 0 -7 -4 -4 -10 3 -5 1 -10 -4 -10 -6 0 -11 -7 -11 -15 0 -8 -5
-15 -12 -15 -6 0 -8 -3 -5 -6 4 -4 -2 -19 -13 -34 -11 -16 -20 -33 -20 -40 0
-6 -4 -9 -8 -6 -4 2 -9 -4 -9 -16 -1 -11 -10 -27 -20 -36 -10 -10 -19 -22 -20
-28 -1 -6 -19 -40 -40 -75 -21 -35 -36 -67 -35 -71 1 -5 -3 -8 -8 -8 -6 0 -10
-7 -10 -15 0 -8 -5 -15 -11 -15 -5 0 -7 -4 -4 -10 3 -5 1 -10 -4 -10 -6 0 -11
-7 -11 -15 0 -8 -5 -15 -11 -15 -5 0 -7 -4 -4 -10 3 -5 1 -10 -5 -10 -6 0 -8
-5 -5 -10 3 -6 -1 -13 -9 -16 -9 -3 -13 -10 -10 -15 3 -5 0 -9 -5 -9 -6 0 -11
-9 -11 -20 0 -11 -7 -23 -15 -26 -8 -4 -12 -10 -9 -15 3 -5 0 -9 -6 -9 -6 0
-9 -4 -6 -9 3 -5 -1 -14 -9 -21 -8 -7 -15 -19 -15 -26 0 -8 -4 -14 -10 -14 -5
0 -10 -7 -10 -15 0 -8 -5 -15 -11 -15 -5 0 -7 -4 -4 -10 3 -5 1 -10 -6 -10 -7
0 -10 -3 -7 -6 7 -6 -30 -67 -59 -98 -12 -13 -13 -16 -3 -11 11 6 10 3 -2 -12
-10 -11 -18 -25 -18 -31 0 -7 -5 -12 -11 -12 -5 0 -7 -4 -4 -10 3 -5 1 -10 -4
-10 -6 0 -11 -6 -11 -14 0 -7 -7 -19 -15 -26 -8 -7 -12 -16 -9 -21 3 -5 -2
-12 -10 -15 -9 -3 -13 -10 -10 -15 3 -5 0 -9 -5 -9 -6 0 -11 -6 -11 -14 0 -7
-7 -19 -15 -26 -8 -7 -12 -16 -10 -21 3 -4 -3 -13 -14 -19 -12 -6 -18 -16 -15
-25 4 -8 1 -15 -5 -15 -6 0 -11 -7 -11 -15 0 -8 -5 -15 -11 -15 -5 0 -7 -4 -4
-10 3 -5 2 -10 -3 -10 -6 0 -13 -11 -16 -25 -4 -14 -11 -25 -16 -25 -6 0 -10
-6 -10 -14 0 -7 -7 -19 -15 -26 -8 -7 -12 -16 -9 -21 3 -5 0 -9 -5 -9 -6 0
-11 -7 -11 -15 0 -8 -4 -15 -8 -15 -5 0 -16 -18 -26 -40 -10 -22 -22 -40 -27
-40 -6 0 -7 -4 -4 -10 3 -5 1 -10 -4 -10 -6 0 -11 -7 -11 -15 0 -8 -5 -15 -12
-15 -6 0 -9 -3 -5 -6 5 -5 -56 -109 -82 -140 -5 -7 -7 -15 -4 -18 4 -3 1 -6
-6 -6 -7 0 -10 -4 -6 -9 3 -5 -3 -16 -12 -23 -10 -7 -19 -20 -21 -28 -2 -8 -7
-17 -10 -20 -10 -7 -42 -62 -49 -82 -3 -10 -9 -18 -14 -18 -5 0 -9 -4 -9 -9 0
-18 -68 -120 -75 -113 -5 4 -5 2 -2 -5 4 -6 0 -19 -9 -27 -8 -9 -13 -16 -9
-16 3 0 -3 -10 -14 -22 -11 -11 -18 -25 -15 -30 3 -4 2 -8 -3 -8 -4 0 -19 -20
-32 -45 -13 -25 -28 -45 -33 -45 -5 0 -6 -4 -3 -10 3 -5 1 -10 -4 -10 -6 0
-11 -7 -11 -15 0 -8 -5 -15 -11 -15 -5 0 -8 -4 -5 -8 3 -5 -8 -23 -23 -40 -16
-17 -26 -33 -23 -36 2 -3 -3 -8 -12 -12 -9 -3 -13 -10 -10 -15 3 -5 -1 -16 -8
-24 -31 -34 -36 -43 -31 -49 4 -3 1 -6 -5 -6 -7 0 -12 -7 -12 -16 0 -9 -5 -12
-12 -8 -6 4 -8 3 -4 -4 3 -6 -1 -18 -10 -26 -8 -9 -12 -16 -8 -16 4 0 -1 -7
-12 -15 -10 -8 -14 -15 -9 -15 6 0 6 -3 -1 -8 -6 -4 -42 -55 -81 -114 -39 -59
-74 -104 -78 -100 -3 4 -5 3 -3 -3 4 -12 -41 -87 -59 -98 -7 -5 -11 -12 -8
-16 2 -5 -7 -21 -20 -35 -14 -15 -25 -31 -25 -35 0 -5 -10 -16 -22 -25 -13 -9
-16 -14 -8 -9 17 8 -37 -68 -57 -80 -7 -5 -11 -12 -8 -18 4 -5 -1 -12 -9 -15
-9 -3 -16 -12 -16 -19 0 -8 -15 -28 -32 -46 -18 -18 -26 -29 -18 -24 15 8 -25
-43 -45 -57 -7 -5 -7 -8 0 -8 6 0 6 -3 -1 -8 -5 -4 -28 -33 -51 -64 -22 -32
-44 -54 -48 -50 -5 4 -5 2 -1 -5 4 -7 -2 -21 -14 -33 -11 -11 -20 -24 -20 -29
0 -6 -8 -16 -19 -23 -10 -7 -18 -17 -19 -21 0 -5 -8 -19 -18 -31 -11 -11 -30
-38 -44 -58 -13 -20 -28 -34 -32 -32 -5 3 -8 2 -7 -3 4 -21 -2 -33 -17 -33 -8
0 -13 -4 -10 -9 3 -4 -10 -26 -29 -49 -19 -22 -35 -43 -35 -47 0 -4 -12 -19
-27 -33 -16 -13 -21 -21 -13 -17 8 3 4 -3 -10 -15 -14 -12 -25 -27 -25 -34 -1
-6 -7 -10 -14 -8 -7 1 -10 -2 -6 -8 3 -5 1 -10 -5 -10 -6 0 -9 -4 -6 -8 3 -5
-3 -15 -12 -24 -9 -8 -24 -25 -32 -37 -8 -13 -24 -33 -35 -45 -11 -12 -31 -38
-45 -56 -14 -19 -33 -42 -42 -52 -10 -10 -18 -22 -18 -27 0 -6 -10 -17 -22
-25 -12 -9 -19 -16 -14 -16 5 0 -1 -9 -14 -20 -13 -11 -20 -20 -16 -20 4 0 1
-6 -6 -14 -7 -8 -17 -11 -22 -8 -5 3 -6 0 -2 -6 3 -6 -2 -15 -11 -21 -10 -6
-14 -11 -10 -11 4 0 2 -6 -5 -14 -7 -8 -17 -11 -22 -8 -5 3 -6 0 -2 -6 4 -6
-9 -27 -28 -47 -19 -19 -32 -35 -30 -35 4 0 -5 -12 -63 -76 -12 -13 -20 -24
-17 -24 3 0 -11 -16 -30 -35 -20 -19 -33 -35 -29 -35 5 0 1 -6 -8 -13 -8 -7
-24 -24 -33 -39 -10 -15 -23 -25 -29 -21 -5 3 -7 2 -4 -4 4 -6 -10 -29 -31
-51 -20 -23 -47 -54 -59 -70 -12 -15 -36 -43 -53 -60 -16 -18 -30 -34 -30 -38
0 -12 -28 -33 -35 -26 -5 4 -5 2 -2 -4 8 -14 -47 -77 -58 -66 -4 4 -5 2 -2 -5
4 -6 -10 -29 -30 -52 -21 -22 -54 -59 -73 -81 -71 -84 -106 -124 -137 -157
-18 -18 -30 -33 -26 -33 3 0 -12 -18 -35 -40 -22 -22 -37 -40 -34 -40 4 0 -9
-14 -28 -31 -19 -17 -28 -28 -20 -24 8 4 -2 -9 -24 -29 -21 -20 -35 -36 -31
-36 4 0 -12 -18 -35 -40 -23 -22 -39 -40 -35 -40 4 0 -7 -13 -24 -29 -18 -17
-33 -34 -34 -38 -1 -4 -5 -7 -10 -5 -4 1 -6 -4 -5 -10 2 -7 -3 -12 -10 -10 -8
1 -11 -2 -8 -7 4 -5 -4 -17 -16 -25 -12 -9 -18 -16 -14 -16 5 0 -10 -19 -35
-42 -24 -22 -35 -35 -24 -28 11 7 1 -5 -21 -26 -23 -22 -47 -49 -53 -62 -7
-12 -17 -20 -23 -16 -7 4 -8 3 -4 -4 3 -6 -3 -16 -14 -22 -11 -6 -19 -14 -17
-19 1 -4 -20 -30 -48 -56 -27 -27 -43 -45 -35 -41 8 5 -2 -8 -23 -28 -21 -20
-36 -36 -33 -36 3 0 -2 -8 -11 -18 -10 -11 -22 -17 -27 -14 -5 3 -6 0 -2 -6 3
-6 -8 -22 -26 -37 -18 -15 -26 -24 -18 -20 8 5 4 -3 -10 -16 -13 -13 -28 -23
-33 -21 -5 1 -6 -2 -3 -7 3 -5 -8 -21 -25 -35 -17 -14 -27 -26 -23 -26 4 0
-16 -22 -44 -50 -28 -27 -48 -50 -45 -50 3 0 -18 -22 -47 -50 -29 -27 -50 -50
-46 -50 4 0 -29 -36 -73 -80 -44 -44 -79 -80 -76 -80 2 0 -22 -26 -53 -57 -31
-32 -60 -57 -64 -56 -5 2 -7 0 -5 -5 3 -9 -106 -118 -115 -114 -5 1 -7 -1 -6
-6 4 -10 -148 -162 -162 -162 -6 0 -9 -3 -7 -7 2 -5 -19 -30 -47 -58 -28 -27
-44 -41 -36 -30 14 18 14 19 -2 6 -10 -7 -18 -20 -18 -28 0 -8 -4 -12 -9 -8
-5 3 -13 -4 -16 -16 -4 -11 -9 -18 -11 -16 -3 3 -24 -15 -48 -39 -24 -24 -47
-40 -51 -36 -3 4 -5 2 -3 -5 2 -9 -66 -83 -78 -83 -2 0 -30 -26 -61 -57 -31
-32 -53 -51 -48 -43 5 8 -7 -2 -27 -23 -19 -20 -38 -34 -43 -30 -4 5 -5 3 -2
-3 5 -9 -28 -47 -42 -49 -3 0 -19 -15 -36 -32 -18 -18 -35 -30 -38 -26 -4 3
-7 -1 -7 -11 0 -9 -7 -19 -16 -23 -8 -3 -35 -26 -60 -51 -24 -25 -44 -43 -44
-40 0 3 -20 -13 -44 -35 -24 -23 -65 -61 -92 -85 -27 -24 -64 -57 -81 -73 -18
-16 -37 -29 -43 -29 -6 0 -9 -4 -6 -9 6 -10 -23 -26 -39 -22 -5 2 -7 0 -3 -4
9 -10 -64 -75 -76 -68 -5 3 -6 1 -2 -6 4 -6 0 -14 -10 -18 -9 -3 -32 -22 -51
-42 -18 -19 -33 -32 -33 -27 0 4 -12 -6 -27 -23 -15 -17 -31 -31 -35 -31 -4 0
-30 -23 -58 -50 -28 -28 -55 -48 -61 -45 -5 4 -8 3 -7 -2 4 -13 -68 -74 -76
-65 -4 4 -6 2 -4 -5 2 -6 -1 -13 -7 -15 -5 -1 -24 -16 -41 -33 -71 -66 -104
-94 -104 -88 0 3 -13 -7 -28 -23 -35 -35 -87 -80 -87 -74 0 2 -17 -12 -37 -33
-21 -20 -40 -37 -43 -37 -3 0 -20 -15 -37 -32 -17 -18 -27 -26 -24 -18 4 8 -2
3 -14 -12 -12 -16 -27 -28 -33 -28 -7 0 -18 -9 -25 -20 -7 -12 -18 -18 -24
-14 -6 4 -9 3 -6 -2 3 -5 -3 -17 -14 -26 -10 -10 -18 -15 -18 -11 0 3 -9 -4
-20 -17 -11 -13 -20 -20 -20 -17 0 3 -18 -11 -40 -33 -22 -22 -40 -37 -40 -34
0 3 -12 -8 -26 -23 -15 -15 -20 -19 -13 -8 7 11 -5 2 -27 -20 -45 -45 -99 -90
-100 -84 0 2 -12 -9 -27 -25 -15 -16 -27 -25 -27 -20 0 5 -5 1 -11 -9 -6 -9
-15 -14 -21 -11 -6 4 -8 3 -5 -3 4 -6 -5 -18 -19 -28 -32 -21 -72 -55 -93 -77
-8 -10 -19 -18 -24 -18 -4 0 -18 -11 -30 -24 -12 -13 -24 -23 -27 -22 -3 0
-18 -10 -33 -24 -59 -53 -67 -60 -67 -53 0 4 -7 -3 -16 -15 -8 -12 -20 -22
-26 -22 -6 0 -21 -10 -33 -22 -36 -37 -97 -83 -106 -81 -5 2 -8 -1 -6 -6 1 -5
-2 -10 -8 -12 -5 -2 -20 -14 -32 -28 -13 -13 -23 -20 -23 -16 0 4 -8 -2 -19
-13 -10 -12 -21 -22 -24 -22 -3 0 -17 -10 -31 -22 -39 -37 -56 -49 -56 -42 0
3 -9 -4 -20 -17 -10 -13 -19 -21 -20 -17 0 3 -14 -7 -31 -23 -17 -16 -35 -26
-40 -23 -5 3 -9 -3 -9 -12 0 -10 -3 -15 -6 -12 -3 3 -16 -4 -29 -16 -27 -24
-31 -27 -105 -81 -30 -22 -64 -47 -74 -57 -10 -10 -22 -15 -26 -13 -5 3 -11
-2 -14 -11 -3 -8 -11 -12 -16 -9 -6 4 -9 2 -8 -3 2 -6 -1 -10 -6 -10 -5 0 -12
-4 -15 -9 -15 -19 -74 -66 -61 -48 9 12 3 9 -15 -7 -40 -36 -125 -99 -125 -92
0 3 -15 -9 -32 -25 -18 -17 -39 -31 -45 -31 -7 0 -13 -5 -13 -12 0 -6 -3 -9
-6 -6 -3 3 -17 -5 -31 -18 -14 -13 -30 -24 -35 -24 -5 0 -16 -6 -23 -12 -33
-30 -45 -38 -55 -38 -5 0 -10 -4 -10 -10 0 -5 -3 -9 -8 -7 -4 1 -18 -8 -31
-20 -13 -12 -27 -20 -31 -18 -5 3 -10 -2 -14 -10 -3 -8 -12 -15 -21 -15 -8 0
-15 -5 -15 -11 0 -5 -5 -7 -10 -4 -6 3 -12 0 -15 -7 -3 -8 -26 -25 -50 -38
-25 -14 -45 -28 -45 -33 0 -4 -4 -6 -9 -3 -5 3 -12 -1 -15 -10 -3 -8 -10 -13
-15 -10 -5 3 -12 -1 -15 -10 -4 -9 -9 -14 -12 -11 -4 3 -18 -5 -32 -18 -14
-13 -29 -22 -34 -19 -4 3 -8 0 -8 -5 0 -6 -7 -11 -15 -11 -8 0 -15 -4 -15 -8
0 -5 -16 -17 -35 -28 -19 -10 -35 -23 -35 -28 0 -5 -3 -7 -6 -3 -4 3 -13 -1
-21 -9 -8 -8 -19 -11 -25 -8 -7 4 -8 2 -4 -4 4 -7 1 -12 -8 -12 -9 0 -16 -5
-16 -11 0 -5 -5 -7 -10 -4 -6 3 -13 -1 -16 -9 -3 -9 -10 -14 -14 -11 -4 3 -11
-2 -14 -11 -3 -8 -10 -12 -16 -9 -5 3 -10 1 -10 -4 0 -6 -7 -11 -15 -11 -8 0
-15 -5 -15 -11 0 -5 -4 -8 -9 -5 -5 3 -12 -1 -15 -10 -4 -9 -9 -14 -12 -11 -4
3 -13 -1 -21 -9 -8 -8 -19 -11 -25 -8 -6 4 -8 2 -4 -4 3 -6 -7 -16 -24 -24
-16 -7 -30 -16 -30 -20 0 -5 -5 -8 -11 -8 -6 0 -23 -9 -39 -20 -15 -11 -30
-17 -34 -13 -3 3 -6 1 -6 -5 0 -7 -16 -20 -35 -29 -19 -9 -35 -21 -35 -25 0
-5 -4 -6 -10 -3 -5 3 -10 1 -10 -4 0 -6 -5 -11 -11 -11 -6 0 -26 -12 -45 -26
-19 -15 -34 -22 -34 -18 0 5 -4 4 -8 -2 -4 -5 -25 -21 -47 -34 -22 -13 -43
-28 -46 -33 -3 -5 -8 -7 -11 -5 -3 1 -31 -14 -62 -34 -32 -21 -62 -38 -67 -38
-5 0 -9 -5 -9 -11 0 -5 -4 -7 -10 -4 -5 3 -10 2 -10 -3 0 -6 -11 -13 -25 -16
-14 -4 -25 -11 -25 -17 0 -6 -4 -7 -10 -4 -5 3 -10 1 -10 -4 0 -6 -6 -11 -14
-11 -7 0 -19 -7 -26 -15 -7 -8 -16 -13 -20 -10 -4 3 -11 -2 -14 -11 -3 -8 -10
-12 -16 -9 -5 3 -10 1 -10 -6 0 -7 -3 -10 -6 -6 -3 3 -16 -3 -27 -14 -12 -11
-27 -17 -35 -14 -7 2 -11 1 -8 -3 3 -5 -17 -19 -44 -33 -27 -13 -50 -27 -50
-31 0 -3 -14 -9 -30 -13 -17 -4 -28 -10 -25 -15 4 -7 -31 -23 -47 -21 -5 1 -8
-4 -8 -9 0 -6 -7 -10 -15 -10 -8 0 -15 -5 -15 -11 0 -5 -4 -7 -10 -4 -5 3 -10
1 -10 -4 0 -6 -5 -11 -10 -11 -6 0 -28 -11 -49 -24 -21 -14 -41 -22 -45 -19
-3 3 -8 -2 -12 -11 -3 -9 -10 -13 -15 -10 -5 3 -9 0 -9 -6 0 -7 -7 -9 -16 -6
-8 3 -12 2 -9 -3 3 -5 -5 -13 -17 -17 -13 -3 -35 -15 -49 -25 -14 -10 -29 -16
-33 -12 -3 3 -6 1 -6 -5 0 -7 -7 -12 -15 -12 -8 0 -15 -5 -15 -11 0 -6 -7 -8
-16 -5 -8 3 -12 2 -9 -4 3 -6 1 -10 -6 -10 -6 0 -34 -13 -60 -30 -27 -16 -49
-27 -49 -23 0 3 -8 -1 -17 -9 -10 -9 -28 -19 -40 -22 -13 -4 -23 -12 -23 -17
0 -6 -4 -7 -10 -4 -5 3 -10 1 -10 -5 0 -6 -4 -8 -10 -5 -5 3 -10 1 -10 -4 0
-6 -5 -11 -11 -11 -6 0 -23 -9 -39 -20 -15 -11 -30 -17 -34 -13 -3 3 -6 1 -6
-5 0 -7 -7 -9 -17 -5 -10 3 -15 3 -11 -2 4 -4 -21 -22 -55 -39 -34 -17 -63
-34 -65 -38 -2 -5 -12 -8 -23 -8 -10 0 -19 -4 -19 -9 0 -5 -13 -12 -30 -16
-16 -4 -30 -10 -30 -14 0 -4 -16 -13 -35 -21 -19 -8 -35 -18 -35 -22 0 -5 -4
-7 -9 -3 -5 3 -12 1 -16 -5 -4 -6 -10 -8 -15 -5 -4 3 -11 -2 -14 -11 -3 -8
-10 -12 -16 -9 -5 3 -10 1 -10 -5 0 -6 -4 -8 -10 -5 -5 3 -10 1 -10 -5 0 -6
-4 -9 -9 -5 -5 3 -12 1 -16 -5 -7 -11 -96 -54 -107 -52 -5 1 -8 -3 -8 -9 0 -5
-4 -8 -9 -5 -5 4 -11 1 -13 -4 -2 -6 -10 -12 -18 -13 -8 -1 -26 -10 -39 -19
-13 -10 -28 -15 -32 -13 -4 3 -9 -2 -13 -10 -3 -8 -14 -15 -23 -15 -10 0 -29
-7 -41 -16 -12 -8 -22 -12 -22 -7 0 4 -4 3 -8 -4 -4 -6 -14 -13 -22 -15 -8 -2
-21 -9 -28 -16 -8 -7 -18 -10 -23 -7 -5 4 -9 2 -9 -3 0 -9 -37 -25 -52 -23 -5
1 -8 -4 -8 -10 0 -5 -5 -7 -10 -4 -5 3 -10 2 -10 -3 0 -6 -7 -13 -16 -16 -10
-4 -13 -2 -8 7 4 6 -4 2 -18 -11 -13 -12 -28 -19 -31 -15 -4 3 -7 1 -7 -6 0
-7 -4 -9 -10 -6 -5 3 -10 1 -10 -4 0 -6 -3 -10 -7 -9 -5 1 -44 -16 -88 -37
-44 -22 -83 -38 -87 -37 -5 1 -8 -3 -8 -9 0 -5 -4 -7 -10 -4 -5 3 -10 1 -10
-4 0 -6 -6 -11 -12 -11 -7 0 -44 -16 -82 -35 -37 -19 -73 -32 -79 -28 -6 3 -7
1 -3 -5 6 -11 -6 -16 -26 -13 -5 0 -8 -4 -8 -10 0 -5 -5 -7 -11 -4 -5 4 -18 1
-27 -7 -32 -26 -82 -49 -92 -43 -6 3 -10 2 -10 -3 0 -10 -58 -36 -72 -33 -5 0
-8 -4 -8 -9 0 -5 -3 -9 -7 -8 -5 1 -18 -3 -30 -10 -13 -7 -23 -10 -23 -7 0 4
-7 -1 -16 -10 -9 -9 -23 -14 -31 -11 -7 3 -16 -1 -20 -10 -3 -8 -12 -13 -19
-10 -8 3 -14 1 -14 -4 0 -6 -4 -10 -10 -10 -5 0 -37 -13 -70 -29 -33 -16 -58
-24 -54 -18 3 7 -1 4 -10 -7 -8 -10 -19 -15 -25 -11 -6 3 -11 2 -11 -3 0 -9
-37 -25 -52 -23 -5 1 -8 -4 -8 -10 0 -5 -4 -8 -9 -4 -5 3 -12 1 -16 -5 -4 -6
-11 -8 -16 -5 -5 4 -9 1 -9 -5 0 -7 -7 -9 -16 -6 -8 3 -12 2 -9 -4 3 -6 -2
-10 -12 -10 -10 0 -29 -8 -42 -17 -14 -9 -21 -11 -17 -5 4 7 -10 1 -30 -13
-21 -14 -43 -24 -50 -21 -7 3 -14 0 -16 -5 -2 -6 -10 -11 -18 -13 -8 -1 -37
-13 -65 -25 -27 -13 -54 -24 -60 -25 -5 -1 -16 -5 -22 -9 -7 -5 -13 -5 -13 0
0 4 -4 2 -9 -5 -4 -7 -14 -14 -22 -16 -8 -1 -24 -8 -36 -14 -13 -7 -23 -10
-23 -7 0 3 -10 -1 -23 -10 -13 -8 -27 -12 -30 -8 -4 3 -7 1 -7 -6 0 -8 -7 -11
-15 -7 -8 3 -15 1 -15 -4 0 -6 -3 -9 -7 -8 -5 1 -30 -8 -58 -21 -27 -13 -57
-24 -65 -25 -8 -1 -25 -7 -36 -13 -12 -7 -24 -9 -28 -6 -3 3 -6 0 -6 -7 0 -7
-3 -11 -6 -8 -3 4 -17 0 -31 -7 -15 -8 -30 -12 -35 -9 -4 3 -8 0 -8 -5 0 -6
-3 -10 -7 -9 -5 1 -24 -4 -43 -11 -19 -8 -38 -15 -42 -16 -5 -1 -10 -4 -13 -5
-3 -1 -8 -3 -12 -5 -5 -1 -16 -5 -25 -9 -9 -4 -22 -9 -30 -10 -7 -1 -23 -8
-35 -14 -13 -7 -23 -10 -23 -7 0 3 -14 -2 -30 -10 -17 -9 -35 -13 -40 -10 -6
3 -10 2 -10 -3 0 -5 -19 -15 -42 -21 -24 -7 -49 -18 -57 -25 -12 -9 -13 -8 -7
3 6 9 1 8 -16 -3 -14 -9 -28 -13 -31 -9 -4 3 -7 1 -7 -6 0 -8 -7 -11 -15 -7
-8 3 -15 1 -15 -4 0 -6 -3 -9 -7 -9 -5 1 -10 0 -13 -1 -3 -1 -12 -3 -20 -5
-37 -8 -45 -10 -50 -17 -3 -4 -17 -9 -32 -12 -14 -2 -36 -9 -47 -16 -12 -6
-21 -8 -21 -4 0 3 -7 1 -15 -6 -8 -7 -15 -10 -15 -7 0 4 -20 -2 -45 -13 -25
-11 -45 -17 -45 -13 0 3 -7 0 -15 -7 -8 -7 -15 -10 -15 -6 0 4 -13 0 -30 -9
-16 -8 -33 -15 -37 -14 -4 1 -11 0 -15 -1 -5 -1 -11 -3 -15 -5 -5 -1 -21 -7
-37 -14 -16 -6 -38 -13 -50 -16 -11 -2 -22 -4 -23 -6 -2 -1 -7 -3 -13 -4 -5
-1 -12 -4 -15 -5 -3 -1 -8 -3 -12 -4 -5 -1 -14 -5 -20 -9 -7 -5 -13 -6 -13 -3
0 3 -16 -2 -35 -10 -19 -8 -35 -12 -35 -9 0 2 -21 -5 -46 -15 -25 -11 -50 -18
-55 -14 -5 3 -9 1 -9 -4 0 -5 -6 -9 -12 -10 -15 -1 -37 -7 -58 -15 -48 -18
-83 -26 -91 -21 -5 3 -9 0 -9 -7 0 -7 -3 -10 -6 -7 -3 4 -20 0 -39 -7 -18 -8
-35 -11 -39 -8 -3 4 -6 1 -6 -6 0 -7 -6 -11 -12 -8 -7 2 -28 -2 -46 -10 -18
-7 -37 -11 -42 -8 -4 3 -10 1 -12 -5 -1 -5 -12 -11 -23 -13 -11 -1 -26 -6 -33
-11 -7 -4 -16 -5 -19 -2 -3 3 -12 1 -20 -5 -7 -6 -13 -8 -13 -4 0 4 -6 3 -12
-3 -7 -5 -29 -13 -48 -16 -39 -8 -65 -14 -65 -16 0 -1 -9 -4 -20 -6 -34 -8
-50 -12 -50 -14 0 -2 -20 -7 -59 -15 -16 -3 -33 -8 -36 -10 -9 -5 -69 -17 -95
-19 -11 0 -22 -4 -25 -8 -3 -3 -21 -8 -40 -10 -19 -1 -37 -6 -40 -9 -3 -4 -21
-9 -40 -12 -19 -3 -46 -8 -60 -12 -14 -3 -34 -8 -45 -10 -11 -2 -33 -7 -50
-11 -16 -3 -40 -7 -52 -7 -13 -1 -23 -4 -23 -7 0 -4 -6 -7 -12 -8 -52 -6 -83
-10 -83 -12 0 -3 -17 -6 -65 -14 -14 -2 -25 -5 -25 -6 0 -2 -9 -4 -20 -5 -11
-2 -33 -6 -50 -10 -16 -4 -37 -8 -45 -9 -8 -1 -28 -6 -45 -9 -16 -4 -41 -8
-55 -11 -14 -2 -36 -7 -50 -10 -27 -6 -73 -15 -105 -21 -33 -5 -113 -21 -155
-30 -53 -11 -76 -16 -100 -21 -14 -3 -34 -7 -45 -9 -11 -2 -31 -6 -45 -9 -24
-6 -43 -10 -104 -21 -16 -3 -44 -12 -63 -20 -20 -8 -40 -12 -46 -8 -6 4 -7 1
-2 -7 6 -10 4 -12 -8 -7 -10 3 -17 2 -17 -3 0 -5 -11 -12 -25 -16 -14 -3 -25
-10 -25 -15 0 -5 -7 -9 -15 -9 -8 0 -19 -9 -25 -20 -6 -11 -14 -19 -18 -17 -4
2 -17 -7 -29 -20 -12 -13 -19 -23 -15 -23 4 0 -4 -10 -18 -21 -14 -11 -18 -17
-11 -13 10 5 8 -3 -5 -22 -25 -35 -38 -66 -46 -104 -2 -8 -6 -19 -9 -25 -10
-16 -7 -175 2 -175 5 0 9 -9 9 -19 0 -11 5 -23 11 -26 6 -4 8 -13 5 -21 -3 -7
5 -20 17 -29 12 -8 18 -15 14 -15 -4 0 6 -12 22 -27 48 -46 71 -63 81 -63 6 0
10 -5 10 -11 0 -5 5 -7 10 -4 6 3 10 2 10 -3 0 -4 16 -14 35 -22 19 -8 35 -17
35 -22 0 -4 3 -7 8 -6 4 1 20 -4 35 -10 16 -7 33 -12 38 -12 6 0 7 -4 4 -10
-4 -6 1 -7 11 -3 10 4 15 2 11 -3 -3 -6 4 -11 16 -11 12 -1 31 -6 42 -12 20
-9 54 -22 68 -26 4 -2 9 -4 12 -5 3 -1 10 -4 15 -5 6 -1 13 -4 18 -5 4 -1 12
-3 17 -5 6 -1 13 -3 18 -5 4 -1 10 -3 15 -4 4 -2 34 -11 67 -21 33 -11 63 -20
68 -21 4 -1 9 -3 12 -4 3 -1 10 -4 15 -5 6 -1 13 -4 18 -5 4 -1 10 -2 15 -1 4
0 7 -4 7 -10 0 -5 4 -7 10 -4 5 3 10 2 10 -3 0 -6 6 -10 13 -9 34 1 48 -4 41
-15 -4 -7 -3 -8 5 -4 6 4 18 2 26 -4 8 -7 15 -10 15 -6 0 4 10 0 23 -9 13 -8
27 -12 30 -8 4 3 7 0 7 -7 0 -7 3 -11 6 -7 8 7 187 -83 197 -99 4 -7 14 -11
22 -8 8 4 18 -1 21 -10 3 -9 10 -14 14 -11 5 3 15 -2 23 -10 9 -8 20 -15 26
-15 6 0 11 -4 11 -10 0 -5 7 -10 15 -10 9 0 18 -7 21 -15 4 -8 10 -12 15 -9 5
3 9 0 9 -5 0 -6 5 -11 11 -11 6 0 16 -6 23 -12 7 -7 31 -26 52 -43 43 -33 218
-205 209 -205 -3 0 6 -11 21 -25 15 -14 23 -25 19 -25 -4 0 2 -9 15 -20 13
-11 20 -20 16 -20 -4 0 -1 -7 6 -15 26 -29 34 -41 70 -107 20 -36 34 -69 30
-74 -4 -4 -1 -4 6 0 11 6 15 -4 11 -30 0 -4 5 -10 12 -14 7 -5 13 -17 14 -28
1 -11 7 -27 14 -35 7 -9 13 -25 14 -36 1 -12 6 -21 11 -21 5 0 7 -3 4 -6 -4
-3 0 -20 7 -39 8 -18 11 -35 8 -39 -4 -3 -1 -6 4 -6 6 0 10 -8 9 -17 -2 -10 0
-20 4 -23 5 -3 11 -20 14 -37 3 -18 9 -48 13 -65 3 -18 7 -43 7 -55 1 -13 4
-23 7 -23 3 0 6 -6 6 -12 1 -7 4 -40 8 -73 25 -222 24 -445 -1 -620 -3 -22 -7
-51 -9 -65 -2 -14 -4 -25 -5 -25 -2 0 -4 -11 -5 -25 -2 -24 -8 -54 -20 -110
-3 -14 -8 -36 -11 -50 -3 -14 -8 -34 -11 -45 -9 -25 -8 -22 -17 -68 -5 -20
-12 -40 -17 -43 -5 -3 -9 -16 -9 -30 0 -14 -7 -38 -15 -54 -9 -17 -13 -30 -9
-30 4 0 1 -6 -5 -13 -6 -8 -8 -17 -4 -20 3 -4 1 -7 -5 -7 -7 0 -11 -3 -11 -7
1 -5 0 -11 -1 -15 -1 -5 -4 -12 -5 -18 -1 -5 -3 -11 -5 -12 -1 -2 -3 -10 -5
-18 -2 -8 -9 -28 -16 -45 -6 -16 -14 -39 -16 -50 -2 -10 -9 -23 -16 -27 -6 -4
-9 -8 -5 -8 4 0 0 -17 -9 -38 -8 -20 -20 -48 -26 -62 -6 -14 -10 -28 -9 -32 1
-5 -2 -8 -6 -8 -5 0 -9 -6 -9 -12 0 -7 -7 -30 -16 -51 -9 -20 -17 -41 -17 -45
-1 -4 -8 -18 -15 -32 -17 -32 -29 -63 -27 -72 1 -5 -3 -8 -9 -8 -5 0 -7 -5 -4
-10 3 -6 1 -10 -5 -10 -6 0 -8 -4 -5 -10 3 -5 1 -10 -5 -10 -6 0 -9 -4 -5 -9
3 -5 1 -12 -5 -16 -6 -4 -8 -11 -5 -16 4 -5 2 -9 -2 -9 -7 0 -33 -51 -37 -72
0 -3 -4 -10 -8 -14 -5 -4 -8 -15 -8 -24 0 -10 -7 -23 -15 -30 -8 -7 -13 -16
-10 -20 3 -4 -2 -13 -10 -20 -8 -7 -12 -16 -9 -21 3 -5 0 -9 -6 -9 -6 0 -8 -4
-5 -10 3 -6 1 -10 -5 -10 -6 0 -8 -5 -5 -10 3 -6 -1 -13 -9 -16 -9 -3 -13 -10
-10 -15 3 -5 -2 -16 -10 -25 -9 -9 -14 -20 -10 -25 3 -5 -2 -12 -10 -15 -9 -3
-14 -10 -11 -14 6 -9 -34 -83 -47 -88 -5 -2 -6 -7 -3 -12 3 -5 0 -14 -7 -22
-7 -7 -31 -47 -52 -88 -21 -41 -44 -78 -49 -82 -6 -3 -11 -15 -12 -25 -1 -10
-10 -29 -21 -41 -10 -12 -19 -26 -20 -30 -1 -14 -39 -72 -47 -72 -5 0 -5 -4
-2 -10 3 -5 1 -10 -4 -10 -6 0 -10 -3 -9 -7 3 -9 -32 -64 -45 -74 -5 -3 -7 -9
-5 -12 1 -4 -5 -15 -14 -26 -9 -11 -14 -22 -11 -25 4 -3 1 -6 -5 -6 -7 0 -12
-6 -12 -13 0 -7 -12 -26 -27 -42 -16 -16 -27 -31 -26 -32 6 -8 -10 -32 -18
-27 -5 3 -9 2 -8 -3 3 -20 -2 -34 -11 -28 -6 4 -10 3 -9 -2 4 -21 -2 -34 -13
-27 -6 4 -8 3 -4 -4 3 -6 -1 -18 -10 -26 -8 -9 -12 -16 -9 -16 4 0 -3 -9 -16
-21 -13 -11 -17 -17 -9 -13 14 7 -33 -52 -55 -68 -7 -5 -7 -8 0 -8 6 0 1 -7
-10 -16 -11 -8 -18 -16 -15 -18 5 -3 -19 -38 -53 -79 -10 -12 -27 -36 -38 -54
-11 -18 -25 -33 -30 -33 -6 0 -8 -4 -5 -8 3 -5 -3 -18 -14 -29 -10 -12 -16
-24 -13 -27 4 -3 1 -6 -6 -6 -7 0 -10 -4 -6 -9 3 -5 -1 -16 -9 -24 -8 -8 -12
-17 -9 -21 4 -3 1 -6 -5 -6 -7 0 -11 -3 -11 -7 1 -5 0 -10 -1 -13 -2 -7 -8
-29 -23 -90 -14 -61 -15 -82 -2 -155 8 -49 10 -58 15 -72 1 -5 2 -11 1 -15 0
-5 4 -8 10 -8 5 0 7 -5 4 -10 -3 -6 -1 -10 5 -10 6 0 8 -4 5 -10 -3 -5 -1 -10
6 -10 7 0 10 -3 6 -6 -5 -5 10 -27 41 -59 6 -8 12 -18 12 -24 0 -5 9 -13 20
-16 11 -3 20 -13 20 -21 0 -8 4 -13 9 -9 5 3 16 -2 24 -10 9 -8 23 -15 31 -15
9 0 16 -5 16 -10 0 -6 3 -9 8 -9 4 1 9 1 12 0 16 -6 84 -12 140 -12 60 0 195
8 195 12 0 0 19 3 43 4 24 2 49 8 56 14 7 6 23 13 37 15 13 3 25 5 27 7 1 1 7
3 12 4 6 1 12 4 15 5 3 1 10 4 15 5 6 1 12 4 15 5 3 1 10 4 15 5 6 1 12 4 15
5 3 1 10 4 15 5 6 1 12 4 15 5 3 1 9 3 14 4 5 0 13 4 17 9 4 4 17 7 29 7 11 0
25 4 30 9 6 6 21 12 35 14 14 3 42 12 63 20 20 9 37 13 37 10 0 -3 7 0 15 7 8
7 15 9 15 5 0 -4 7 -2 15 5 8 7 15 9 15 5 0 -4 6 -3 13 3 6 6 15 11 20 11 4 1
8 1 10 2 1 0 13 2 26 5 14 2 31 10 40 17 12 10 13 9 7 -2 -6 -9 -1 -8 17 3 13
9 33 18 43 21 11 2 39 11 63 19 24 9 47 13 52 10 5 -3 9 -1 9 4 0 8 11 13 63
27 4 2 9 4 12 5 3 1 10 4 15 5 6 1 12 4 15 5 3 1 10 4 15 5 6 1 11 3 13 5 1 1
9 3 17 5 37 8 45 10 50 17 3 4 17 10 30 12 14 2 26 5 28 7 1 1 5 2 10 4 4 1
21 7 37 14 17 7 40 13 52 13 13 0 20 4 17 9 -3 5 2 10 10 10 17 2 33 5 41 9 3
1 10 4 15 5 6 1 12 4 15 5 3 1 8 3 13 5 4 1 20 7 35 13 16 7 34 12 41 12 7 0
16 3 20 7 4 5 11 8 14 9 11 1 46 15 66 25 14 8 16 8 10 -3 -4 -7 2 -4 14 6 12
11 22 16 22 11 0 -4 7 -1 17 6 9 8 18 13 19 12 2 -1 11 0 19 2 8 3 22 7 30 10
8 2 17 3 19 2 1 -1 10 4 19 12 10 7 17 11 17 8 0 -3 25 5 55 18 30 14 55 22
55 19 0 -4 6 -1 14 5 8 7 22 13 32 16 11 2 35 10 54 18 64 26 75 30 83 32 4 2
9 4 12 5 3 1 8 3 13 4 4 1 17 7 28 14 12 6 24 8 28 5 3 -3 6 0 6 7 0 7 3 11 6
7 3 -3 25 3 49 13 24 10 46 16 49 13 3 -4 6 -1 6 5 0 7 8 12 18 12 10 0 23 5
30 12 7 7 12 9 12 6 0 -4 12 -1 27 7 15 8 31 11 36 8 6 -3 7 -1 3 5 -7 11 7
16 41 15 7 -1 10 3 7 8 -3 5 2 9 10 9 8 0 27 5 43 12 15 6 31 11 36 10 4 -1 7
3 7 10 0 6 3 9 6 5 3 -3 34 7 69 23 35 16 66 26 69 23 3 -4 6 -1 6 5 0 7 4 12
9 12 5 0 22 5 38 12 15 6 31 12 36 13 4 2 10 4 15 5 4 1 10 2 15 1 4 0 7 3 7
8 0 9 48 26 63 23 4 -1 7 2 7 8 0 6 3 9 8 8 4 -1 18 4 32 12 14 7 26 13 27 12
4 -2 177 73 214 93 14 8 29 12 33 8 3 -3 6 0 6 7 0 7 2 11 6 8 3 -3 26 5 51
18 26 13 51 20 56 17 6 -3 7 -1 3 5 -5 8 0 12 13 12 11 0 23 5 26 10 4 6 11 8
16 5 5 -4 9 -1 9 5 0 6 5 8 10 5 5 -3 10 -1 10 5 0 6 5 8 10 5 6 -3 10 -1 10
4 0 6 3 10 8 9 4 -1 17 3 28 10 12 6 24 8 28 5 3 -3 6 -1 6 6 0 7 5 9 10 6 5
-3 10 -1 10 4 0 6 3 10 8 9 4 0 25 7 47 17 22 10 43 18 48 17 4 -1 7 3 7 9 0
5 5 7 10 4 6 -3 10 -1 10 5 0 6 4 9 9 6 5 -3 14 1 21 9 7 8 16 12 21 9 5 -3 9
0 9 5 0 6 3 10 8 9 4 0 30 10 57 22 28 13 53 23 58 22 4 -1 7 2 7 7 0 8 37 24
53 22 4 -1 7 4 7 11 0 6 3 8 6 5 4 -4 19 2 33 12 14 10 32 16 40 13 8 -2 11 0
7 6 -7 11 21 25 35 16 5 -3 9 -1 9 4 0 5 19 17 43 28 23 10 44 21 47 24 3 3
16 11 29 18 19 11 22 11 16 0 -3 -7 0 -5 9 6 8 10 20 15 27 10 8 -4 10 -3 5 4
-5 8 0 12 13 12 12 0 21 3 21 8 0 8 49 32 67 32 7 0 13 5 13 11 0 5 5 7 10 4
6 -3 10 -1 10 5 0 6 5 8 10 5 6 -3 10 -2 10 4 0 5 10 13 23 17 12 4 39 18 61
31 21 14 35 19 31 11 -3 -7 0 -5 8 4 8 10 17 15 20 11 4 -3 7 -1 7 6 0 7 4 10
9 7 5 -3 14 1 21 9 7 8 16 15 21 15 4 0 30 13 58 29 27 16 52 27 55 24 3 -4 6
-1 6 6 0 7 5 9 10 6 6 -3 10 -2 10 3 0 9 50 37 63 34 4 -1 7 3 7 9 0 5 4 7 10
4 6 -3 10 -2 10 4 0 5 10 13 23 17 12 3 34 15 50 26 15 11 27 17 27 13 0 -3
10 3 22 14 11 11 25 18 30 15 4 -3 8 0 8 6 0 6 4 9 9 5 6 -3 13 1 18 8 7 13
35 27 49 26 4 0 10 4 13 9 3 5 25 19 48 31 23 11 45 25 48 31 4 6 11 8 16 5 5
-4 9 -1 9 5 0 6 4 9 9 6 5 -3 12 1 15 10 3 8 10 12 16 9 5 -3 10 -1 10 5 0 6
4 8 10 5 6 -3 10 -2 10 3 0 6 20 19 44 31 25 11 47 25 51 31 3 6 11 8 16 5 5
-4 9 -1 9 4 0 6 7 11 15 11 8 0 15 4 15 9 0 5 11 12 25 15 14 4 25 11 25 17 0
6 5 7 10 4 6 -3 10 -2 10 4 0 5 8 12 19 16 10 3 29 14 41 25 12 11 26 17 30
15 4 -3 11 2 14 11 3 8 10 12 16 9 5 -3 10 -2 10 2 0 5 17 17 38 28 20 11 39
22 42 25 10 10 45 31 63 36 9 4 17 11 17 17 0 6 3 8 6 4 3 -3 15 3 27 13 11
11 23 17 27 15 4 -3 15 4 24 14 10 11 31 25 47 31 16 7 29 17 29 22 0 5 5 6
10 3 5 -3 10 -1 10 4 0 6 7 11 15 11 8 0 15 5 15 11 0 5 5 7 10 4 6 -3 10 -3
10 2 0 8 62 47 69 43 2 -1 7 3 10 8 3 6 13 12 21 14 8 2 21 11 28 21 7 9 18
15 23 12 5 -4 9 -1 9 4 0 6 7 11 15 11 8 0 15 5 15 10 0 6 7 10 15 10 8 0 15
4 15 10 0 5 11 12 25 16 14 3 25 9 25 13 0 4 12 14 28 22 15 7 41 24 58 36 17
13 34 20 37 17 4 -4 9 1 13 10 3 9 12 16 18 16 7 0 22 9 34 20 12 12 22 18 22
15 0 -3 10 3 22 15 12 11 26 20 30 20 11 0 92 53 96 63 2 4 10 7 18 7 8 0 14
5 14 11 0 5 4 7 10 4 5 -3 10 -2 10 2 0 5 9 14 21 21 17 11 20 11 13 0 -4 -7
5 -1 21 15 15 15 39 30 52 33 12 4 23 10 23 15 0 5 14 15 30 24 17 9 30 12 30
8 0 -4 6 2 14 13 8 10 18 19 23 19 5 0 17 8 27 18 10 9 24 17 32 17 8 0 14 5
14 11 0 5 5 7 10 4 6 -3 10 -2 10 3 0 5 12 17 26 27 18 11 24 13 19 4 -4 -8 4
-2 19 14 15 15 33 27 41 27 8 0 15 5 15 12 0 6 3 9 6 5 3 -3 15 3 27 13 11 11
24 17 29 14 4 -3 11 2 14 10 3 9 10 13 15 10 5 -3 9 -1 9 3 0 5 9 14 21 21 17
11 20 11 14 0 -4 -7 2 -3 12 8 10 12 28 25 41 29 12 3 22 10 22 14 0 7 28 23
55 31 6 2 16 10 23 17 8 7 18 10 24 7 7 -4 8 -2 4 4 -6 11 6 16 27 13 4 0 7 4
7 10 0 5 5 7 10 4 6 -3 10 -2 10 4 0 10 38 27 52 23 5 -1 8 2 8 6 0 10 50 37
63 34 4 -1 7 3 7 10 0 6 3 8 6 5 4 -3 16 0 27 8 15 11 24 12 34 3 16 -13 17
-38 2 -38 -5 0 -7 -5 -4 -10 3 -5 3 -10 -2 -10 -4 0 -19 -10 -33 -21 -14 -11
-19 -17 -11 -13 9 5 12 3 7 -4 -4 -7 -14 -12 -22 -12 -8 0 -13 -4 -10 -8 3 -5
-6 -15 -19 -22 -14 -7 -25 -17 -25 -22 0 -5 -4 -6 -10 -3 -5 3 -10 -1 -10 -9
0 -9 -4 -16 -9 -16 -6 0 -22 -11 -37 -25 -14 -13 -30 -22 -35 -19 -5 3 -9 0
-9 -5 0 -6 -7 -11 -16 -11 -8 0 -13 -3 -11 -7 3 -5 -11 -18 -30 -30 -19 -13
-31 -17 -28 -10 4 6 -2 3 -12 -9 -10 -11 -39 -34 -65 -50 -27 -16 -48 -32 -48
-36 0 -5 -6 -8 -13 -8 -8 0 -22 -9 -32 -20 -10 -11 -24 -20 -32 -20 -7 0 -13
-4 -13 -10 0 -5 -4 -10 -10 -10 -9 0 -35 -19 -65 -47 -7 -7 -15 -9 -19 -6 -3
4 -6 1 -6 -5 0 -7 -7 -12 -16 -12 -8 0 -12 -4 -9 -10 3 -5 0 -10 -8 -10 -8 0
-18 -7 -21 -16 -4 -9 -9 -14 -12 -11 -5 5 -27 -10 -60 -41 -8 -7 -14 -11 -14
-7 0 4 -14 -7 -31 -24 -17 -17 -34 -29 -39 -26 -4 3 -11 -2 -14 -11 -3 -8 -11
-12 -16 -9 -6 4 -9 2 -8 -3 2 -6 -1 -10 -5 -10 -5 -1 -17 -11 -28 -23 -10 -12
-19 -19 -19 -15 0 7 -19 -7 -50 -38 -11 -11 -20 -17 -20 -13 0 3 -12 -5 -26
-18 -15 -14 -31 -25 -35 -25 -4 0 -20 -11 -35 -25 -15 -14 -33 -25 -41 -25 -8
0 -11 -5 -7 -12 5 -8 2 -9 -10 -5 -9 4 -14 3 -11 -2 3 -5 -4 -12 -15 -16 -11
-3 -20 -11 -20 -17 0 -6 -3 -9 -6 -5 -5 5 -27 -10 -60 -41 -8 -7 -14 -10 -14
-7 0 4 -9 -3 -21 -16 -11 -13 -18 -18 -14 -12 4 9 1 11 -9 7 -9 -3 -14 -9 -11
-13 2 -4 -10 -16 -28 -26 -18 -10 -34 -21 -37 -24 -7 -9 -65 -45 -65 -41 0 2
-13 -8 -29 -23 -16 -15 -31 -25 -33 -23 -2 2 -18 -10 -34 -25 -17 -16 -37 -29
-44 -29 -7 0 -15 -4 -17 -8 -4 -12 -95 -72 -107 -72 -6 0 -11 -4 -11 -9 0 -11
-122 -86 -135 -83 -5 2 -7 0 -3 -4 8 -7 -51 -50 -64 -46 -5 1 -8 -2 -8 -8 0
-5 -7 -10 -15 -10 -8 0 -15 -4 -15 -8 0 -5 -16 -17 -35 -28 -19 -10 -35 -22
-35 -27 0 -4 -4 -5 -10 -2 -5 3 -10 1 -10 -4 0 -6 -5 -11 -10 -11 -6 0 -20 -9
-32 -20 -12 -10 -24 -17 -28 -15 -5 3 -11 -2 -14 -11 -3 -8 -10 -13 -15 -10
-5 3 -12 -1 -15 -10 -3 -8 -10 -12 -16 -9 -6 3 -13 -1 -16 -9 -3 -9 -12 -16
-19 -16 -7 0 -18 -7 -25 -15 -7 -8 -16 -12 -21 -9 -5 3 -12 -2 -15 -10 -3 -9
-10 -14 -14 -11 -4 3 -11 -2 -14 -11 -3 -8 -10 -12 -16 -9 -5 3 -10 1 -10 -4
0 -6 -7 -11 -15 -11 -8 0 -15 -5 -15 -11 0 -5 -4 -8 -9 -5 -5 3 -11 -1 -15 -9
-3 -8 -11 -15 -17 -15 -7 0 -27 -11 -46 -26 -18 -14 -33 -21 -33 -17 0 4 -4 4
-8 -2 -4 -5 -16 -17 -26 -25 -18 -13 -19 -13 -12 0 4 8 -1 6 -11 -5 -10 -12
-31 -27 -48 -35 -16 -8 -34 -21 -38 -28 -5 -7 -12 -10 -18 -7 -5 4 -12 -1 -15
-9 -3 -9 -10 -13 -15 -10 -5 3 -9 0 -9 -6 0 -6 -4 -8 -10 -5 -5 3 -10 2 -10
-2 0 -5 -9 -14 -21 -21 -17 -11 -20 -11 -14 0 3 7 0 5 -8 -4 -8 -10 -19 -18
-26 -18 -6 0 -11 -5 -11 -11 0 -5 -4 -7 -10 -4 -5 3 -10 2 -10 -2 0 -10 -71
-49 -83 -45 -5 1 -6 -2 -3 -7 6 -9 -22 -26 -36 -23 -5 1 -8 -3 -8 -9 0 -5 -5
-7 -10 -4 -6 3 -13 -1 -16 -9 -3 -9 -15 -16 -25 -16 -10 0 -19 -4 -19 -9 0 -5
-9 -13 -20 -16 -11 -3 -26 -13 -34 -20 -8 -8 -20 -16 -27 -17 -7 -2 -22 -11
-33 -20 -10 -10 -23 -15 -28 -12 -5 4 -16 -3 -24 -15 -8 -12 -24 -21 -35 -21
-10 0 -19 -4 -19 -8 0 -10 -50 -37 -62 -34 -5 1 -8 -2 -8 -8 0 -5 -7 -10 -15
-10 -8 0 -15 -5 -15 -11 0 -5 -5 -7 -10 -4 -5 3 -10 2 -10 -4 0 -5 -9 -12 -19
-16 -11 -3 -36 -17 -55 -30 -20 -13 -36 -22 -36 -18 0 3 -9 -2 -20 -12 -11
-10 -20 -14 -20 -10 0 5 -7 0 -15 -11 -8 -10 -15 -15 -15 -11 0 4 -21 -6 -47
-24 -25 -18 -42 -26 -38 -18 4 8 -2 4 -14 -9 -12 -12 -26 -20 -31 -17 -4 3
-11 -2 -14 -11 -3 -8 -10 -13 -15 -9 -5 3 -12 1 -16 -4 -3 -6 -27 -20 -53 -33
-26 -13 -49 -26 -52 -30 -3 -3 -12 -8 -19 -10 -8 -2 -22 -9 -30 -16 -9 -7 -20
-13 -26 -13 -5 -1 -29 -14 -51 -30 -23 -15 -45 -25 -49 -21 -3 4 -13 -2 -21
-12 -8 -11 -14 -16 -14 -12 0 4 -7 0 -16 -8 -8 -9 -22 -16 -30 -16 -8 0 -14
-5 -14 -10 0 -6 -3 -9 -7 -8 -5 1 -22 -5 -39 -15 -17 -9 -35 -13 -39 -9 -5 4
-5 1 -1 -6 6 -10 2 -13 -19 -12 -3 1 -13 -6 -21 -15 -9 -8 -20 -13 -25 -9 -5
3 -12 -1 -15 -9 -5 -15 -50 -33 -69 -28 -5 2 -7 -1 -2 -5 7 -7 -35 -30 -57
-32 -5 0 -12 -5 -15 -10 -8 -12 -93 -57 -103 -54 -5 1 -8 -3 -8 -10 0 -6 -3
-9 -6 -5 -3 3 -23 -5 -44 -18 -21 -13 -41 -21 -44 -18 -3 4 -6 1 -6 -6 0 -7
-4 -10 -9 -7 -5 4 -11 3 -13 -2 -4 -9 -208 -114 -208 -106 0 3 -7 -2 -16 -10
-8 -9 -19 -14 -24 -11 -4 3 -11 -2 -14 -11 -3 -8 -10 -12 -16 -9 -5 3 -10 1
-10 -5 0 -7 -7 -9 -16 -6 -8 3 -12 2 -9 -4 3 -6 -3 -10 -14 -10 -11 0 -27 -7
-35 -16 -9 -8 -16 -13 -16 -9 0 3 -11 -2 -25 -11 -14 -9 -25 -12 -25 -8 0 5
-4 4 -8 -2 -10 -16 -129 -74 -136 -67 -3 4 -6 1 -6 -6 0 -7 -4 -9 -10 -6 -5 3
-10 1 -10 -5 0 -6 -4 -8 -10 -5 -5 3 -10 1 -10 -5 0 -6 -4 -8 -10 -5 -6 3 -10
2 -10 -4 0 -6 -7 -7 -17 -4 -10 4 -14 2 -10 -4 4 -7 -5 -14 -23 -18 -16 -4
-30 -11 -30 -17 0 -6 -7 -8 -15 -4 -8 3 -15 2 -15 -3 0 -7 -36 -22 -49 -20 -2
0 -7 -3 -10 -8 -10 -13 -49 -33 -66 -33 -8 0 -15 -4 -15 -10 0 -5 -9 -10 -19
-10 -11 0 -23 -5 -26 -10 -4 -6 -11 -8 -16 -5 -5 4 -9 2 -9 -3 0 -5 -10 -13
-22 -17 -27 -9 -20 -6 -83 -35 -27 -13 -53 -23 -57 -22 -5 1 -8 -2 -8 -8 0 -6
-3 -9 -7 -8 -5 1 -35 -11 -68 -26 -33 -16 -66 -29 -72 -29 -7 0 -13 -3 -13 -7
0 -7 -102 -45 -113 -42 -5 1 -6 -1 -3 -6 5 -8 -62 -38 -76 -34 -5 1 -8 -2 -8
-8 0 -5 -9 -10 -19 -10 -11 0 -23 -5 -26 -11 -4 -6 -13 -8 -21 -5 -7 3 -18 -3
-23 -12 -6 -9 -11 -13 -11 -8 0 5 -7 3 -15 -4 -9 -7 -18 -10 -22 -7 -3 4 -17
-2 -31 -13 -13 -11 -28 -17 -33 -14 -5 3 -9 0 -9 -5 0 -6 -3 -10 -7 -9 -5 1
-18 -3 -29 -10 -12 -6 -24 -8 -28 -5 -3 3 -6 1 -6 -5 0 -7 -3 -12 -7 -11 -5 1
-17 -2 -28 -5 -11 -4 -24 -6 -29 -6 -5 1 -12 -3 -16 -10 -4 -6 -13 -12 -21
-14 -8 -1 -24 -8 -36 -14 -13 -7 -23 -9 -23 -5 0 4 -4 4 -8 -2 -6 -9 -61 -33
-87 -38 -5 -1 -13 -6 -16 -10 -3 -4 -16 -9 -27 -10 -12 -1 -22 -5 -22 -9 0 -4
-9 -8 -19 -8 -11 0 -23 -5 -26 -10 -4 -6 -10 -8 -15 -5 -5 3 -11 1 -15 -5 -4
-6 -11 -8 -16 -5 -5 4 -9 1 -9 -6 0 -7 -3 -9 -7 -6 -3 4 -12 2 -20 -4 -7 -6
-13 -8 -13 -3 0 5 -4 3 -8 -3 -4 -7 -17 -14 -27 -16 -11 -2 -30 -9 -42 -15
-13 -7 -23 -10 -23 -6 0 3 -6 1 -13 -5 -8 -6 -17 -8 -20 -4 -4 3 -7 1 -7 -6 0
-7 -4 -10 -9 -6 -5 3 -12 1 -16 -5 -4 -6 -11 -8 -16 -5 -5 4 -9 1 -9 -4 0 -6
-3 -10 -7 -9 -5 0 -16 -2 -25 -5 -10 -4 -26 -10 -35 -14 -10 -3 -21 -7 -25 -8
-5 -2 -10 -4 -13 -5 -3 -1 -8 -3 -12 -4 -5 -1 -19 -8 -33 -16 -14 -7 -25 -12
-25 -11 0 1 -12 -2 -26 -8 -15 -5 -35 -11 -45 -13 -11 -2 -22 -7 -25 -11 -3
-4 -16 -9 -27 -10 -12 -1 -22 -5 -22 -10 0 -4 -4 -6 -9 -2 -5 3 -12 1 -16 -5
-4 -6 -10 -8 -15 -5 -5 3 -11 1 -15 -5 -4 -6 -11 -8 -16 -5 -5 4 -9 1 -9 -4 0
-6 -3 -10 -7 -9 -5 1 -21 -4 -38 -11 -16 -7 -38 -13 -47 -14 -10 -1 -18 -4
-18 -8 0 -8 -59 -23 -79 -20 -7 1 -10 -2 -7 -8 3 -5 -8 -13 -26 -17 -47 -11
-47 -11 -55 -14 -5 -1 -11 -2 -15 -1 -5 0 -8 -4 -8 -11 0 -6 -3 -8 -7 -5 -3 4
-12 2 -20 -4 -7 -6 -13 -8 -13 -4 0 4 -7 2 -15 -5 -8 -7 -15 -10 -15 -7 0 3
-12 0 -27 -8 -15 -8 -30 -12 -35 -9 -4 3 -8 0 -8 -6 0 -7 -6 -10 -14 -7 -8 3
-16 1 -18 -5 -2 -6 -16 -10 -31 -10 -15 -1 -24 -5 -21 -10 3 -5 0 -8 -7 -7 -8
1 -27 -3 -44 -10 -16 -7 -37 -14 -45 -16 -8 -2 -16 -4 -17 -5 -2 -2 -7 -4 -13
-5 -5 -1 -13 -4 -17 -5 -5 -1 -11 -2 -15 -1 -5 0 -8 -4 -8 -11 0 -6 -3 -8 -7
-5 -3 4 -12 2 -20 -4 -7 -6 -13 -8 -13 -4 0 4 -6 2 -13 -4 -8 -6 -24 -13 -38
-15 -13 -3 -25 -5 -26 -7 -2 -1 -6 -2 -10 -3 -5 -1 -18 -7 -30 -14 -13 -7 -23
-10 -23 -7 0 3 -14 -1 -30 -10 -17 -9 -30 -13 -30 -9 0 4 -7 1 -15 -6 -9 -7
-18 -10 -22 -6 -3 3 -15 -1 -25 -11 -10 -9 -18 -13 -18 -8 0 4 -7 2 -15 -5 -8
-7 -15 -9 -15 -5 0 4 -6 2 -13 -4 -8 -6 -22 -12 -33 -14 -10 -1 -23 -5 -29 -8
-15 -10 -120 -43 -124 -40 -2 2 -7 -2 -10 -8 -4 -6 -18 -13 -31 -15 -14 -2
-26 -5 -27 -7 -2 -1 -6 -2 -10 -4 -5 -1 -16 -5 -25 -9 -9 -4 -22 -8 -30 -10
-7 -1 -19 -5 -25 -9 -7 -5 -21 -10 -30 -12 -10 -2 -31 -8 -48 -15 -16 -6 -31
-11 -32 -11 -2 0 -23 -8 -48 -19 -25 -11 -45 -17 -45 -13 0 3 -7 0 -15 -7 -8
-6 -20 -8 -27 -4 -7 4 -10 4 -6 -1 6 -6 -80 -42 -167 -69 -5 -2 -18 -6 -27
-10 -9 -4 -22 -9 -30 -10 -7 -2 -21 -6 -30 -10 -9 -4 -25 -9 -35 -11 -10 -2
-19 -4 -20 -5 -2 -2 -6 -3 -10 -5 -5 -1 -16 -5 -25 -9 -9 -4 -21 -5 -27 -2 -5
3 -11 2 -13 -3 -1 -6 -15 -12 -30 -15 -15 -2 -31 -7 -36 -10 -5 -3 -19 -7 -33
-10 -13 -3 -39 -9 -56 -15 -18 -5 -33 -7 -33 -3 0 4 -4 1 -9 -6 -4 -7 -18 -14
-29 -15 -12 -1 -22 -6 -22 -11 0 -5 -3 -7 -6 -3 -3 3 -31 -5 -61 -19 -30 -13
-60 -21 -66 -17 -6 4 -7 1 -2 -7 6 -10 4 -12 -9 -7 -10 4 -15 3 -11 -3 3 -6
-3 -10 -14 -10 -12 0 -21 -5 -21 -11 0 -5 -5 -7 -10 -4 -6 3 -10 1 -10 -5 0
-6 -4 -8 -10 -5 -5 3 -10 1 -10 -4 0 -6 -6 -11 -14 -11 -8 0 -16 -4 -18 -9 -2
-5 -9 -11 -17 -13 -8 -2 -28 -16 -46 -33 -83 -78 -125 -115 -125 -110 0 4 -11
-5 -23 -19 -13 -14 -27 -23 -30 -19 -4 3 -7 -1 -7 -9 0 -9 -10 -23 -23 -31
-12 -8 -40 -31 -62 -51 -22 -20 -62 -55 -89 -79 -26 -23 -63 -57 -82 -75 -19
-19 -34 -31 -34 -27 0 3 -11 -5 -24 -19 -13 -15 -26 -26 -30 -26 -4 0 -22 -15
-39 -33 -18 -17 -54 -50 -81 -72 -53 -44 -83 -69 -135 -118 -19 -18 -31 -25
-26 -17 4 8 -11 -5 -35 -30 -24 -25 -37 -36 -30 -25 7 11 -6 0 -28 -24 -23
-25 -42 -42 -42 -38 0 3 -10 -4 -23 -16 -12 -12 -37 -33 -55 -47 -19 -14 -49
-38 -68 -55 -59 -52 -63 -55 -74 -55 -6 0 -9 -4 -6 -8 2 -4 -12 -19 -32 -32
-20 -14 -49 -37 -66 -52 -16 -15 -33 -25 -38 -22 -5 3 -7 1 -6 -4 2 -6 -1 -11
-7 -13 -5 -2 -23 -17 -39 -34 -16 -16 -25 -23 -21 -15 5 8 -3 4 -17 -10 -42
-40 -62 -55 -71 -52 -5 1 -6 -2 -2 -8 3 -5 -2 -13 -12 -17 -10 -4 -21 -11 -25
-17 -4 -6 -11 -11 -15 -11 -4 0 -21 -13 -37 -28 -16 -14 -33 -24 -38 -21 -4 3
-7 0 -6 -6 2 -7 -12 -20 -29 -29 -18 -10 -31 -20 -28 -23 2 -2 -14 -15 -35
-28 -22 -14 -40 -28 -40 -32 0 -5 -5 -8 -11 -8 -6 0 -20 -10 -31 -22 -11 -13
-16 -16 -12 -8 4 8 -4 4 -17 -10 -14 -14 -37 -34 -53 -45 -15 -11 -34 -26 -42
-33 -8 -7 -14 -10 -14 -5 0 4 -5 0 -11 -10 -5 -9 -17 -17 -25 -17 -8 0 -12 -4
-9 -10 3 -5 -1 -10 -9 -10 -9 0 -16 -5 -16 -12 0 -6 -3 -9 -6 -5 -3 3 -17 -6
-31 -21 -14 -15 -20 -18 -13 -7 8 11 -1 7 -18 -10 -41 -40 -60 -55 -67 -55 -7
0 -25 -15 -57 -45 -12 -11 -17 -13 -13 -5 4 8 -1 6 -13 -5 -39 -37 -57 -50
-65 -47 -4 1 -10 -5 -13 -13 -3 -8 -10 -12 -15 -9 -5 3 -9 0 -9 -6 0 -6 -5 -8
-10 -5 -6 4 -9 2 -8 -3 2 -6 0 -9 -3 -8 -4 0 -17 -10 -29 -24 -12 -14 -19 -18
-15 -10 6 13 5 13 -7 0 -28 -32 -111 -89 -121 -83 -6 3 -7 1 -3 -5 4 -7 -3
-14 -19 -18 -14 -3 -24 -9 -21 -12 3 -2 -25 -25 -62 -50 -37 -24 -69 -47 -72
-51 -3 -3 -12 -7 -20 -9 -8 -2 -25 -14 -38 -28 -14 -13 -30 -24 -36 -24 -6 0
-18 -9 -26 -19 -7 -11 -17 -18 -22 -15 -4 3 -8 0 -8 -6 0 -6 -4 -9 -9 -6 -5 4
-11 3 -13 -1 -7 -17 -76 -62 -83 -55 -5 4 -5 2 -2 -4 6 -10 -10 -22 -33 -26
-3 -1 -10 -8 -17 -17 -7 -9 -13 -12 -13 -8 0 4 -6 3 -13 -2 -55 -46 -77 -62
-77 -56 0 3 -12 -6 -27 -20 -15 -14 -33 -25 -40 -25 -7 0 -13 -4 -13 -10 0 -5
-7 -10 -15 -10 -8 0 -15 -4 -15 -8 0 -5 -20 -19 -45 -32 -25 -13 -45 -27 -45
-32 0 -4 -7 -8 -15 -8 -8 0 -15 -5 -15 -11 0 -5 -4 -7 -10 -4 -5 3 -10 3 -10
-2 0 -7 -53 -42 -65 -43 -3 0 -17 -10 -31 -23 -14 -12 -30 -22 -35 -22 -5 0
-14 -7 -19 -15 -5 -8 -10 -11 -10 -7 0 4 -10 -1 -22 -12 -11 -11 -25 -18 -29
-15 -4 2 -11 -1 -16 -9 -11 -17 -63 -50 -63 -40 0 5 -5 0 -11 -10 -5 -9 -17
-17 -24 -17 -8 0 -15 -5 -15 -11 0 -5 -4 -7 -10 -4 -5 3 -10 1 -10 -6 0 -7 -3
-10 -6 -6 -3 3 -18 -5 -32 -19 -15 -13 -31 -24 -35 -24 -5 0 -28 -13 -52 -30
-24 -16 -48 -30 -53 -30 -5 0 -17 -9 -27 -20 -10 -11 -22 -17 -26 -14 -5 3 -9
0 -9 -6 0 -6 -5 -8 -10 -5 -5 3 -10 2 -10 -3 0 -10 -50 -37 -63 -33 -5 1 -6
-3 -2 -8 3 -6 -6 -13 -20 -17 -14 -3 -25 -10 -25 -14 0 -9 -40 -25 -53 -22 -5
1 -6 -2 -2 -8 3 -5 0 -10 -8 -10 -8 0 -20 -7 -27 -15 -7 -9 -15 -13 -17 -11
-3 3 -14 -4 -26 -14 -11 -11 -24 -17 -29 -14 -4 3 -8 1 -8 -3 0 -10 -71 -49
-83 -45 -5 1 -6 -2 -2 -8 3 -5 1 -10 -5 -10 -7 0 -24 -9 -39 -19 -15 -11 -34
-21 -41 -23 -8 -2 -23 -11 -34 -20 -11 -10 -26 -18 -33 -18 -7 0 -13 -5 -13
-11 0 -6 -7 -8 -15 -5 -9 3 -18 -1 -21 -8 -3 -8 -19 -20 -35 -26 -16 -7 -29
-16 -29 -21 0 -5 -9 -9 -20 -9 -11 0 -20 -4 -20 -10 0 -5 -5 -10 -11 -10 -6 0
-25 -10 -42 -22 -18 -13 -34 -22 -37 -20 -3 1 -12 -4 -22 -12 -9 -8 -19 -12
-22 -9 -3 4 -6 1 -6 -6 0 -7 -4 -9 -10 -6 -5 3 -10 2 -10 -3 0 -5 -15 -15 -33
-23 -17 -7 -34 -15 -37 -19 -3 -3 -34 -21 -70 -39 -36 -19 -81 -45 -101 -57
-20 -13 -40 -20 -43 -17 -3 4 -6 1 -6 -5 0 -7 -6 -12 -14 -12 -7 0 -19 -7 -26
-15 -7 -8 -21 -15 -31 -15 -11 0 -19 -3 -19 -8 0 -4 -20 -16 -45 -27 -25 -11
-45 -24 -45 -28 0 -5 -4 -5 -10 -2 -5 3 -10 1 -10 -5 0 -6 -4 -8 -10 -5 -5 3
-10 1 -10 -5 0 -6 -4 -8 -10 -5 -5 3 -10 3 -10 -2 0 -4 -22 -18 -50 -31 -27
-12 -52 -27 -55 -32 -3 -6 -15 -10 -26 -10 -10 0 -19 -5 -19 -11 0 -5 -4 -7
-10 -4 -5 3 -10 1 -10 -5 0 -6 -4 -8 -10 -5 -5 3 -10 2 -10 -2 0 -5 -20 -17
-45 -28 -25 -11 -45 -24 -45 -29 0 -5 -3 -6 -7 -3 -3 4 -12 2 -20 -4 -7 -6
-13 -8 -13 -5 0 4 -10 -3 -22 -14 -12 -11 -28 -18 -34 -16 -7 3 -15 -2 -18
-10 -3 -9 -10 -12 -16 -9 -5 3 -10 1 -10 -5 0 -6 -4 -8 -10 -5 -5 3 -10 1 -10
-5 0 -6 -4 -8 -10 -5 -6 3 -10 1 -10 -5 0 -6 -4 -8 -10 -5 -5 3 -10 1 -10 -6
0 -7 -3 -9 -6 -6 -4 4 -19 -2 -34 -13 -15 -11 -30 -17 -34 -13 -3 3 -6 1 -6
-6 0 -7 -4 -9 -10 -6 -5 3 -10 3 -10 -2 0 -4 -11 -13 -25 -20 -19 -8 -24 -8
-19 0 3 7 -1 4 -9 -5 -8 -10 -17 -15 -20 -11 -4 3 -7 1 -7 -5 0 -7 -3 -11 -7
-10 -10 2 -149 -66 -168 -82 -8 -7 -15 -9 -15 -5 0 4 -7 2 -15 -5 -8 -7 -15
-9 -15 -6 0 4 -7 0 -16 -8 -8 -9 -20 -14 -25 -11 -5 4 -9 1 -9 -5 0 -6 -4 -8
-10 -5 -5 3 -10 1 -10 -4 0 -6 -6 -11 -12 -11 -7 0 -39 -13 -70 -29 -32 -16
-55 -24 -52 -17 3 6 -2 2 -10 -8 -9 -11 -16 -17 -16 -13 0 4 -16 -2 -36 -13
-19 -11 -39 -18 -45 -15 -5 4 -9 2 -9 -4 0 -10 -38 -27 -52 -23 -5 1 -8 -3 -8
-9 0 -5 -4 -7 -10 -4 -5 3 -10 1 -10 -5 0 -6 -4 -9 -9 -5 -5 3 -12 1 -16 -5
-3 -5 -15 -10 -25 -10 -10 0 -20 -5 -22 -10 -2 -6 -13 -12 -26 -13 -12 0 -22
-6 -22 -11 0 -5 -3 -7 -6 -3 -3 3 -22 -3 -41 -14 -19 -11 -31 -14 -27 -7 4 7
-1 6 -12 -3 -16 -13 -38 -25 -64 -34 -11 -4 -47 -18 -87 -36 -24 -10 -43 -15
-43 -11 0 4 -4 1 -9 -6 -4 -7 -14 -14 -22 -16 -8 -1 -24 -8 -36 -14 -13 -7
-23 -10 -23 -7 0 3 -10 -1 -23 -10 -13 -8 -27 -12 -30 -8 -4 3 -7 1 -7 -5 0
-7 -8 -12 -18 -12 -10 0 -22 -3 -26 -8 -4 -4 -11 -7 -14 -8 -4 0 -27 -9 -52
-20 -25 -10 -48 -18 -53 -16 -4 1 -7 -3 -7 -10 0 -6 -3 -9 -6 -5 -4 3 -23 -2
-43 -12 -20 -10 -42 -16 -50 -13 -8 3 -11 0 -7 -7 6 -10 -12 -16 -36 -12 -5 0
-8 -3 -8 -9 0 -5 -4 -10 -9 -10 -5 0 -22 -5 -38 -12 -15 -6 -31 -12 -35 -13
-5 -2 -10 -4 -13 -5 -3 -1 -8 -3 -12 -5 -14 -3 -68 -26 -96 -40 -19 -9 -25
-10 -20 -2 3 7 -2 5 -13 -3 -21 -18 -89 -50 -104 -50 -5 0 -33 -11 -62 -24
-118 -54 -153 -69 -161 -67 -4 0 -10 -6 -13 -14 -4 -8 -12 -15 -20 -15 -7 0
-18 -8 -23 -18 -6 -9 -11 -13 -11 -8 0 5 -8 -1 -19 -12 -10 -12 -22 -18 -26
-14 -5 4 -5 2 -2 -4 4 -6 -7 -26 -24 -45 -28 -31 -44 -59 -64 -114 -34 -90
-32 -225 4 -293 6 -12 9 -22 6 -22 -4 0 0 -7 7 -15 30 -33 38 -45 32 -45 -13
0 90 -90 117 -102 15 -7 25 -16 23 -20 -3 -4 6 -8 20 -8 14 0 27 -4 30 -9 3
-4 20 -12 38 -16 18 -4 40 -9 48 -11 8 -2 31 -6 50 -8 19 -3 49 -8 65 -11 17
-3 44 -7 60 -10 17 -3 39 -7 50 -9 31 -5 121 -20 193 -30 15 -2 27 -5 27 -6 0
-1 16 -4 35 -6 50 -7 75 -11 75 -13 0 -1 20 -4 45 -6 25 -3 56 -7 70 -10 14
-3 45 -8 70 -11 24 -3 54 -8 65 -9 11 -2 43 -7 70 -10 58 -8 90 -13 90 -15 0
0 25 -3 55 -6 65 -7 95 -11 95 -13 0 -1 25 -4 55 -6 30 -2 80 -7 110 -10 196
-21 562 -40 945 -50 310 -8 1505 -9 1650 -1 266 15 314 17 490 22 146 3 341 4
585 3 14 0 34 0 45 0 11 1 66 1 123 0 l102 -1 0 -27 c0 -26 -1 -27 -62 -28
-35 0 -121 -4 -193 -8 -71 -4 -153 -8 -181 -9 -28 -2 -55 -5 -60 -8 -5 -3 -34
-9 -65 -12 -31 -4 -67 -9 -80 -12 -13 -2 -37 -7 -54 -9 -16 -3 -43 -7 -60 -10
-16 -3 -48 -7 -70 -9 -22 -3 -51 -7 -65 -11 -14 -3 -45 -8 -70 -11 -25 -2 -58
-7 -75 -10 -16 -2 -46 -6 -65 -8 -20 -2 -51 -7 -70 -10 -19 -4 -55 -8 -80 -11
-25 -2 -61 -7 -80 -9 -49 -7 -155 -18 -215 -23 -109 -9 -142 -12 -185 -17 -82
-10 -381 -29 -655 -42 -60 -2 -657 -6 -1325 -8 -668 -2 -1234 -6 -1258 -10
-24 -5 -49 -9 -55 -10 -7 -1 -18 -5 -24 -9 -7 -5 -13 -6 -13 -2 0 3 -15 -1
-34 -9 -19 -8 -37 -12 -40 -8 -3 3 -6 1 -6 -5 0 -6 -11 -14 -25 -17 -14 -4
-25 -11 -25 -16 0 -6 -5 -10 -11 -10 -20 0 -127 -126 -121 -142 1 -5 -3 -8 -9
-8 -5 0 -7 -4 -4 -10 3 -6 1 -10 -6 -10 -7 0 -9 -3 -6 -7 4 -3 2 -12 -4 -20
-6 -7 -8 -13 -5 -13 4 0 2 -8 -3 -18 -18 -33 -28 -147 -18 -192 12 -50 21 -76
29 -87 5 -7 7 -17 3 -23 -3 -5 1 -13 9 -16 9 -3 16 -12 16 -20 0 -8 4 -13 9
-12 5 2 11 -1 12 -6 4 -9 59 -70 115 -126 13 -14 22 -28 19 -32 -3 -3 3 -11
12 -19 17 -13 17 -13 3 6 -8 11 17 -11 56 -50 39 -38 69 -74 66 -79 -3 -5 0
-6 6 -2 6 3 14 1 19 -6 4 -7 17 -18 28 -25 11 -6 19 -16 17 -23 -1 -6 2 -9 8
-5 5 3 10 1 10 -4 0 -6 6 -11 14 -11 8 0 18 -5 22 -12 5 -7 3 -8 -6 -3 -9 5
-11 4 -6 -4 4 -6 11 -9 15 -7 4 3 17 -4 29 -14 12 -11 25 -20 29 -20 5 0 15
-9 23 -20 8 -11 20 -20 27 -20 6 0 16 -7 21 -16 5 -9 13 -16 18 -16 5 0 8 -4
6 -9 -1 -5 1 -8 5 -7 15 3 62 -25 57 -33 -3 -5 2 -9 10 -9 9 0 16 -5 16 -11 0
-5 4 -8 8 -5 5 3 15 -4 22 -15 8 -10 20 -19 27 -19 7 0 13 -4 13 -10 0 -5 5
-10 11 -10 7 0 20 -10 30 -22 11 -11 19 -17 19 -13 0 4 9 -2 20 -15 11 -13 20
-20 20 -16 0 8 22 -10 48 -37 9 -9 20 -17 24 -17 8 0 38 -22 70 -52 10 -10 18
-15 18 -12 0 3 6 -1 14 -8 7 -7 24 -20 36 -28 12 -8 28 -21 36 -27 7 -7 16
-13 20 -13 3 0 15 -9 25 -21 9 -11 21 -20 26 -21 4 0 7 -4 5 -10 -1 -5 2 -7 6
-4 5 3 21 -5 35 -18 14 -13 28 -21 31 -19 3 3 8 -2 12 -11 3 -9 13 -16 20 -16
8 0 17 -7 20 -15 4 -8 12 -15 20 -15 7 0 18 -8 23 -18 6 -9 11 -13 11 -8 0 5
12 -4 26 -20 15 -16 23 -22 18 -14 -8 16 27 -11 59 -45 10 -11 15 -13 11 -5
-7 15 -5 14 53 -40 13 -11 23 -17 23 -13 0 4 8 -2 19 -13 10 -10 28 -26 41
-34 12 -8 28 -21 36 -27 7 -7 17 -13 23 -13 6 0 11 -4 11 -10 0 -5 6 -10 14
-10 8 0 17 -7 20 -16 3 -8 10 -13 14 -10 5 3 15 -4 22 -15 8 -10 20 -19 27
-19 7 0 13 -4 13 -10 0 -5 4 -10 10 -10 9 0 35 -19 65 -47 8 -7 18 -13 24 -13
6 0 11 -4 11 -10 0 -5 4 -10 10 -10 10 0 39 -22 73 -55 11 -11 17 -14 12 -7
-6 11 -3 11 13 1 12 -7 18 -17 16 -21 -3 -4 0 -8 6 -8 14 0 72 -41 83 -58 5
-7 12 -10 17 -7 4 3 10 -2 14 -10 3 -8 12 -15 21 -15 8 0 15 -4 15 -10 0 -5 4
-10 10 -10 9 0 28 -13 64 -45 6 -5 23 -16 38 -24 15 -8 25 -19 21 -24 -3 -6
-1 -7 5 -3 6 3 23 -6 38 -21 16 -16 30 -26 32 -24 2 1 14 -5 26 -15 11 -11 34
-25 49 -33 15 -8 27 -18 27 -23 0 -4 7 -8 15 -8 7 0 19 -8 24 -17 6 -10 11
-14 11 -10 0 5 7 2 15 -5 33 -30 45 -38 55 -38 5 0 10 -4 10 -10 0 -5 7 -10
15 -10 9 0 18 -7 21 -15 4 -8 10 -12 15 -9 5 3 12 -2 15 -10 3 -9 12 -16 18
-16 7 0 22 -9 34 -20 12 -11 26 -20 31 -20 6 0 15 -8 20 -18 6 -9 11 -13 11
-8 0 4 8 0 18 -11 9 -10 15 -14 12 -8 -3 6 3 2 13 -8 9 -11 17 -15 17 -11 0 5
4 4 8 -1 4 -6 19 -16 34 -24 15 -8 25 -18 22 -23 -3 -5 -2 -8 3 -7 12 4 63
-23 63 -33 0 -4 7 -8 15 -8 8 0 15 -5 15 -11 0 -5 4 -8 8 -5 5 3 21 -7 37 -22
16 -15 32 -27 35 -26 13 2 59 -34 52 -41 -4 -4 1 -5 10 -2 10 4 18 2 18 -3 0
-6 7 -10 15 -10 8 0 15 -4 15 -10 0 -5 7 -10 15 -10 8 0 15 -5 15 -10 0 -6 4
-9 9 -8 5 2 17 -6 26 -17 9 -11 13 -14 9 -6 -4 7 8 3 27 -10 19 -13 36 -27 37
-32 2 -4 8 -5 13 -1 5 3 9 0 9 -5 0 -6 5 -11 11 -11 6 0 25 -10 42 -22 18 -13
36 -23 40 -23 4 0 20 -11 34 -25 15 -14 23 -19 19 -12 -7 11 -4 11 13 0 12 -7
21 -16 21 -21 0 -4 5 -5 10 -2 6 3 10 1 10 -4 0 -6 7 -11 15 -11 8 0 15 -5 15
-11 0 -5 4 -8 8 -5 5 3 18 -3 29 -14 12 -10 24 -16 27 -13 3 4 6 2 6 -3 0 -6
16 -16 35 -24 19 -7 32 -17 29 -22 -3 -5 -2 -7 3 -6 16 4 53 -14 48 -23 -3 -5
1 -6 9 -3 9 3 16 1 16 -5 0 -6 7 -11 15 -11 8 0 15 -5 15 -12 0 -6 3 -9 6 -5
3 3 24 -5 45 -19 21 -13 43 -24 49 -24 5 0 10 -5 10 -11 0 -5 4 -7 10 -4 6 3
10 1 10 -5 0 -6 5 -8 10 -5 5 3 10 1 10 -4 0 -6 7 -11 15 -11 8 0 15 -5 15
-11 0 -5 5 -7 10 -4 6 3 10 1 10 -5 0 -6 4 -8 10 -5 5 3 10 1 10 -4 0 -6 9
-11 20 -11 11 0 20 -4 20 -9 0 -5 11 -12 25 -15 14 -4 25 -11 25 -17 0 -6 4
-8 9 -4 5 3 16 -1 24 -9 8 -8 17 -12 21 -9 3 4 6 1 6 -5 0 -7 7 -12 15 -12 8
0 15 -4 15 -10 0 -5 7 -7 15 -4 8 4 15 2 15 -2 0 -5 14 -15 31 -23 17 -7 61
-30 99 -51 38 -21 71 -35 74 -32 3 3 6 0 6 -7 0 -7 4 -10 10 -6 5 3 18 -3 30
-15 11 -11 20 -18 20 -15 0 3 19 -5 43 -17 23 -12 46 -21 50 -20 4 1 10 -4 13
-12 3 -8 12 -12 20 -9 8 3 14 0 14 -7 0 -6 5 -8 10 -5 6 3 10 1 10 -4 0 -6 3
-11 8 -10 15 2 52 -14 52 -23 0 -5 4 -7 9 -3 5 3 12 1 16 -5 3 -5 13 -10 22
-10 9 0 28 -10 41 -22 14 -13 22 -17 18 -11 -5 9 -2 11 8 7 9 -3 16 -10 16
-15 0 -5 9 -9 19 -9 11 0 27 -7 35 -16 9 -8 16 -13 16 -9 0 3 10 0 22 -7 13
-7 26 -11 31 -10 4 1 7 -2 7 -8 0 -5 9 -10 20 -10 11 0 20 -5 20 -11 0 -5 4
-8 9 -5 5 3 21 -4 37 -16 15 -13 25 -17 21 -10 -6 8 -3 10 7 6 9 -3 16 -11 16
-17 0 -6 3 -7 7 -4 3 4 21 -3 40 -14 18 -11 33 -18 33 -15 0 4 10 0 23 -9 13
-8 27 -12 30 -8 4 3 7 1 7 -6 0 -7 4 -9 10 -6 6 3 10 1 10 -6 0 -7 3 -9 6 -6
4 3 16 1 28 -5 11 -7 24 -11 29 -10 4 1 7 -3 7 -9 0 -5 4 -8 9 -4 5 3 16 -1
24 -9 8 -8 17 -13 20 -10 2 3 20 -4 40 -15 19 -11 38 -17 41 -14 3 4 6 0 6 -7
0 -7 3 -10 6 -7 4 3 16 1 28 -5 23 -13 28 -15 52 -17 8 0 13 -5 10 -9 -2 -4 5
-9 17 -9 12 -1 23 -7 25 -12 2 -5 10 -7 18 -4 8 3 14 -1 14 -8 0 -7 3 -9 7 -6
3 4 12 2 20 -4 7 -6 13 -8 13 -5 0 4 10 1 23 -6 12 -7 24 -13 27 -13 12 -3 66
-26 80 -33 8 -5 36 -15 63 -23 26 -7 47 -16 47 -20 0 -3 6 -6 13 -6 20 -1 142
-47 145 -55 2 -5 14 -8 27 -8 12 0 28 -7 35 -15 7 -8 16 -13 20 -10 5 3 19 1
32 -4 39 -16 62 -24 77 -27 8 -1 17 -6 20 -11 3 -4 17 -10 31 -11 14 -2 31 -9
38 -14 6 -6 12 -8 12 -5 0 3 30 -6 68 -20 37 -13 74 -26 82 -28 8 -2 17 -4 20
-5 3 -1 8 -2 13 -1 4 0 7 -4 7 -10 0 -5 5 -7 10 -4 6 3 10 2 10 -3 0 -6 6 -10
12 -9 40 1 59 -4 52 -15 -5 -8 -2 -9 11 -5 9 4 24 2 31 -4 8 -6 14 -9 14 -5 0
4 13 0 29 -8 16 -9 31 -12 35 -9 3 4 6 1 6 -6 0 -7 4 -10 9 -7 5 4 22 1 38 -5
32 -14 52 -20 71 -21 6 -1 12 -6 12 -11 0 -5 6 -7 14 -4 7 3 25 -1 40 -8 14
-8 26 -11 26 -8 0 3 7 0 15 -7 8 -7 15 -10 15 -7 0 2 37 -6 83 -20 45 -13 89
-26 97 -28 8 -2 15 -4 15 -5 0 -3 41 -11 58 -11 9 0 17 -5 17 -11 0 -5 6 -8
14 -5 7 3 19 0 25 -6 6 -6 11 -8 11 -5 0 4 15 2 33 -4 17 -5 41 -11 52 -13 11
-2 20 -4 20 -5 0 -2 33 -10 60 -15 11 -2 22 -4 25 -5 3 -1 8 -2 13 -1 4 0 7
-3 7 -7 0 -5 10 -8 23 -7 12 1 28 -2 35 -8 6 -5 12 -7 12 -4 0 3 16 1 36 -5
35 -9 46 -12 104 -24 14 -3 32 -7 40 -9 8 -2 15 -4 15 -5 0 -1 15 -3 34 -6 19
-2 39 -9 46 -14 7 -5 14 -7 18 -4 3 3 21 1 39 -5 30 -9 51 -14 113 -26 11 -2
31 -6 45 -10 14 -3 34 -8 45 -10 11 -2 32 -6 47 -9 16 -3 39 -8 53 -11 14 -3
37 -8 52 -11 16 -3 36 -6 46 -7 9 -1 17 -4 17 -7 0 -3 10 -7 23 -8 28 -2 72
-9 72 -11 0 -2 11 -4 25 -7 34 -5 92 -16 110 -21 8 -2 25 -4 38 -5 12 0 22 -4
22 -7 0 -4 10 -8 23 -8 12 -1 33 -4 47 -7 14 -2 39 -7 55 -10 44 -8 70 -14 70
-16 0 -1 11 -3 25 -5 28 -4 78 -14 100 -20 8 -2 29 -7 45 -10 17 -2 41 -7 55
-11 14 -3 34 -7 45 -9 20 -3 50 -9 95 -20 14 -3 41 -8 60 -11 19 -3 42 -7 50
-9 8 -2 31 -7 50 -11 46 -8 65 -12 65 -14 0 -1 11 -3 25 -4 24 -3 68 -10 120
-21 23 -5 41 -8 120 -19 14 -2 25 -5 25 -6 0 0 20 -3 45 -6 86 -10 95 -11 98
-14 1 -1 19 -2 40 -2 20 0 41 -3 46 -6 5 -3 32 -6 60 -8 28 -1 85 -5 126 -8
347 -29 1137 -23 1515 10 33 3 83 7 110 9 28 2 50 4 50 5 0 2 23 4 50 5 28 2
50 4 50 5 0 1 11 3 25 5 24 2 72 9 155 20 22 3 58 8 80 10 22 2 58 7 80 10 22
4 54 8 70 9 17 2 41 6 55 10 14 4 43 8 65 11 48 5 98 12 145 21 69 12 95 16
125 19 17 2 30 4 30 6 0 2 33 8 76 13 19 2 44 6 55 9 10 4 35 9 54 12 19 3 42
8 51 11 9 2 32 7 50 9 19 3 45 7 59 10 46 11 75 17 95 20 11 2 31 6 45 9 14 3
36 8 50 11 14 3 59 13 100 22 41 9 84 17 95 18 11 0 22 3 25 6 3 4 21 9 40 12
33 5 45 8 103 23 12 3 33 6 47 7 14 1 27 5 30 8 3 4 21 10 40 13 19 3 59 12
88 20 29 8 55 15 57 15 3 1 6 1 8 2 10 3 45 11 57 13 9 1 20 5 25 8 11 6 83
20 87 17 2 -1 13 3 24 9 12 6 34 14 50 16 16 3 44 10 62 15 17 5 32 7 32 3 0
-4 4 -2 8 5 4 6 21 14 37 17 17 2 30 5 30 6 0 1 17 6 48 13 6 1 18 6 25 10 6
5 17 5 22 2 6 -3 10 -1 10 4 0 6 3 10 8 9 10 -2 54 10 132 35 36 11 67 20 70
20 3 -1 32 9 65 22 33 12 63 23 68 23 20 3 123 35 132 41 13 9 77 31 105 36
12 2 35 11 52 19 17 9 34 13 39 10 5 -3 9 0 9 5 0 6 3 10 8 9 4 0 14 1 22 5
70 26 116 41 123 39 4 -1 7 2 7 8 0 6 3 9 8 9 4 -1 10 0 15 1 4 1 10 3 15 5
18 5 69 26 85 35 10 6 22 8 27 5 6 -4 10 -1 10 5 0 6 5 8 10 5 6 -3 10 -1 10
5 0 6 4 9 9 5 5 -3 12 -1 16 5 4 6 11 8 16 5 5 -4 9 -1 9 4 0 6 9 11 19 11 11
0 23 5 26 10 4 6 11 8 16 5 5 -4 9 -1 9 5 0 6 4 9 9 5 5 -3 13 0 16 6 4 5 13
8 21 5 7 -3 18 3 23 12 6 9 11 13 11 8 0 -5 7 -3 15 4 8 7 15 9 15 5 0 -5 9 0
20 10 11 10 20 15 20 11 0 -3 10 0 23 9 13 8 27 12 30 8 4 -3 7 -1 7 5 0 7 7
12 15 12 8 0 29 9 46 19 17 11 39 17 47 13 10 -3 13 -1 8 6 -4 7 -2 13 3 13
17 2 23 5 66 24 22 10 43 18 47 17 5 -1 8 2 8 7 0 5 14 12 30 16 17 4 30 10
30 15 0 4 7 11 16 14 10 4 13 2 9 -7 -4 -6 0 -4 8 5 8 10 17 15 20 11 4 -3 7
-1 7 6 0 7 5 9 10 6 6 -3 10 -1 10 5 0 7 7 9 15 6 9 -3 18 1 22 10 3 8 12 13
20 10 8 -3 11 -2 8 3 -5 9 20 22 39 20 5 0 12 3 15 9 3 5 29 20 56 34 88 44
120 63 127 73 4 6 8 6 8 2 0 -5 7 -1 16 7 8 9 20 14 25 11 5 -4 9 -1 9 4 0 6
7 11 15 11 8 0 15 5 15 11 0 5 5 7 10 4 6 -3 10 -1 10 4 0 6 6 11 14 11 8 0
21 7 29 15 8 8 21 16 28 17 8 2 20 9 27 16 8 7 18 9 24 6 7 -4 8 -2 4 4 -4 7
-1 12 8 12 9 0 16 5 16 11 0 6 7 8 16 5 8 -3 13 -2 10 3 -5 8 7 17 27 20 4 0
17 10 29 20 11 11 25 18 30 15 4 -3 8 2 8 10 0 9 7 16 16 16 8 0 13 3 11 8 -5
9 30 42 37 35 3 -4 6 1 6 9 0 9 7 18 15 22 8 3 14 9 13 13 -1 4 4 19 12 33 8
14 15 30 16 35 2 6 6 21 9 35 17 62 7 179 -19 231 -9 17 -14 35 -11 39 3 4 -2
11 -11 14 -9 4 -14 9 -10 13 3 3 -3 13 -14 20 -11 8 -18 19 -15 24 4 5 1 9 -5
9 -6 0 -8 5 -5 10 4 6 3 9 -2 8 -4 -2 -22 11 -39 27 -49 47 -72 64 -78 58 -3
-4 -6 -1 -6 5 0 7 -4 12 -9 12 -5 0 -22 5 -38 12 -32 13 -35 14 -83 23 -51 11
-55 10 -315 -11 -27 -2 -79 -7 -115 -11 -131 -13 -777 -6 -1040 13 -47 3 -106
6 -132 6 -27 1 -48 4 -48 7 0 3 -19 6 -43 7 -39 0 -104 6 -237 20 -94 11 -105
12 -105 14 0 1 -18 3 -40 5 -72 7 -165 18 -245 30 -19 3 -57 7 -85 10 -27 3
-63 8 -80 10 -16 3 -52 8 -80 11 -68 8 -90 11 -90 13 0 1 -21 4 -46 6 -25 2
-59 6 -75 9 -16 3 -51 8 -79 11 -27 3 -68 9 -90 12 -22 3 -49 6 -60 8 -11 1
-20 3 -20 4 0 3 -94 11 -121 11 -17 0 -20 5 -16 25 6 33 17 39 93 50 14 2 37
8 50 13 13 5 32 8 42 7 9 -2 17 1 17 5 0 5 8 9 18 9 19 -1 77 8 77 12 0 1 9 3
20 5 11 1 31 6 45 9 14 4 34 8 45 10 11 2 31 6 45 9 37 8 64 15 130 30 14 3
36 8 50 10 14 3 40 9 59 15 19 6 38 8 44 4 5 -3 12 -1 16 5 4 6 24 13 46 16
22 2 40 5 40 6 0 1 7 3 15 5 8 2 26 7 40 10 14 3 36 8 50 11 14 3 32 7 40 9 8
2 15 4 15 5 0 1 7 3 15 5 27 7 59 15 83 21 12 3 31 7 42 9 11 2 32 8 48 14 15
6 27 8 27 5 0 -4 6 -1 14 5 8 6 18 11 22 10 5 -1 12 0 17 1 4 1 10 3 15 4 4 2
27 8 52 15 25 7 53 15 62 17 10 2 27 6 37 8 11 3 28 9 39 15 11 6 22 8 25 4 4
-3 12 -1 19 4 7 6 21 9 31 8 9 -2 15 0 12 5 -4 7 28 16 80 23 11 1 22 5 25 9
3 4 15 9 25 11 11 1 26 6 33 10 6 5 17 5 22 2 6 -3 10 -1 10 5 0 7 7 9 16 6 8
-3 26 1 40 10 13 9 24 13 24 10 0 -4 9 -2 21 4 20 11 53 21 77 22 6 1 12 5 12
10 0 5 5 6 10 3 6 -4 17 -2 24 4 7 6 21 12 32 14 10 1 25 6 32 10 6 5 12 5 12
1 0 -3 7 -1 15 6 8 7 15 9 15 5 0 -4 6 -3 13 2 6 6 26 14 42 18 36 10 36 10
57 19 9 4 22 9 30 10 7 2 24 8 38 13 14 6 28 9 32 6 5 -2 8 1 8 8 0 7 3 9 7 6
3 -4 13 -1 21 6 13 10 14 9 8 -2 -6 -8 0 -7 18 4 14 10 26 13 26 9 0 -5 4 -3
8 3 4 7 17 14 27 16 22 4 35 9 109 38 27 10 57 19 67 19 11 0 19 5 19 10 0 6
3 9 8 8 10 -3 85 23 100 35 6 5 12 6 12 2 0 -4 7 -2 15 5 8 7 15 9 15 5 0 -4
6 -2 14 4 8 7 27 14 42 17 16 3 31 9 34 14 3 4 22 11 43 15 20 4 37 11 37 16
0 5 3 8 8 7 4 -1 17 3 30 10 12 7 22 10 22 6 0 -3 7 -1 15 6 9 7 18 10 22 6 3
-3 15 1 25 11 10 9 18 13 18 8 0 -4 7 -2 15 5 8 7 15 9 15 4 0 -5 4 -3 9 4 4
7 18 14 29 15 12 1 22 5 22 9 0 4 3 7 8 6 8 -2 59 18 85 32 10 6 22 8 27 5 6
-4 10 -2 10 4 0 9 68 37 83 33 4 -1 7 2 7 8 0 6 3 9 8 8 4 -1 25 6 47 16 22
10 45 19 50 20 6 2 28 11 50 21 22 10 43 18 48 17 4 -1 7 2 7 8 0 6 3 10 8 9
4 -1 16 2 27 5 11 4 24 6 29 6 5 -1 12 3 16 10 4 6 13 12 21 14 8 1 24 7 35
14 12 6 24 8 28 5 3 -3 6 -2 6 4 0 10 36 26 53 24 4 -1 7 4 7 10 0 5 4 8 9 4
5 -3 12 -1 16 5 4 6 11 8 16 5 5 -4 9 -1 9 4 0 6 4 11 9 11 5 0 22 5 38 12 15
6 31 11 36 10 4 -1 7 3 7 9 0 5 5 7 10 4 6 -3 10 -1 10 4 0 6 4 11 9 11 5 0
22 5 38 12 15 6 31 11 36 10 4 -1 7 3 7 9 0 5 5 7 10 4 6 -3 10 -1 10 5 0 6 5
8 10 5 6 -3 10 -1 10 5 0 6 5 8 10 5 6 -3 10 -1 10 6 0 7 3 10 6 6 3 -3 25 5
49 18 23 13 45 21 49 18 3 -4 6 -1 6 6 0 7 5 9 10 6 6 -3 10 -1 10 5 0 6 5 8
10 5 6 -3 10 -1 10 5 0 6 5 8 10 5 6 -3 10 -1 10 5 0 6 5 8 10 5 6 -3 10 -2
10 3 0 6 7 13 16 16 10 4 13 2 8 -7 -4 -6 4 -2 18 11 13 12 28 19 31 15 4 -3
7 0 7 7 0 7 3 11 6 7 3 -3 24 5 46 19 22 14 37 20 33 12 -3 -7 1 -4 9 6 9 11
16 16 16 11 0 -4 8 -1 18 8 10 10 22 14 25 10 4 -3 7 -1 7 6 0 7 5 9 10 6 6
-3 10 -1 10 5 0 6 5 8 10 5 6 -3 10 -1 10 5 0 6 5 8 10 5 6 -3 10 -1 10 5 0 6
5 8 10 5 6 -3 10 -3 10 2 0 4 15 14 33 22 17 8 45 23 61 35 16 11 26 15 22 8
-5 -8 -2 -10 8 -6 9 3 13 10 10 15 -5 8 9 13 29 10 4 0 7 3 7 7 0 5 16 14 35
22 19 8 35 18 35 22 0 5 5 6 10 3 6 -3 10 -1 10 5 0 6 5 8 10 5 6 -3 10 -1 10
6 0 7 3 9 6 6 4 -3 18 3 32 13 13 11 31 20 38 20 8 0 14 5 14 11 0 5 5 7 10 4
6 -3 10 -2 10 3 0 4 16 14 35 22 19 8 35 17 35 21 0 8 60 33 73 30 5 -1 6 3 3
8 -6 8 33 28 43 22 2 -2 8 4 13 13 5 9 13 14 19 11 5 -4 9 -2 9 3 0 5 12 15
28 23 15 8 51 28 81 46 30 18 59 29 64 26 6 -3 7 -1 3 5 -4 7 -2 12 3 12 16 0
25 3 36 12 6 5 21 17 34 28 13 11 28 17 32 14 5 -3 9 -1 9 3 0 5 17 17 38 28
20 11 46 28 56 37 10 10 23 15 28 12 4 -3 8 0 8 5 0 6 7 11 15 11 8 0 15 5 15
11 0 5 5 7 10 4 6 -3 13 1 16 9 3 9 10 13 15 10 5 -3 9 0 9 5 0 6 6 11 14 11
8 0 16 4 18 9 2 5 10 11 18 13 8 2 23 12 33 23 10 11 16 14 12 5 -4 -10 -2 -9
8 2 8 10 17 15 20 11 4 -3 7 -1 7 4 0 6 20 21 45 33 25 12 45 26 45 31 0 6 4
8 9 5 5 -3 12 1 15 10 3 8 10 13 15 10 5 -3 12 1 15 10 3 8 10 12 16 9 5 -3
10 -2 10 2 0 5 9 14 21 21 17 11 20 11 13 0 -4 -7 4 -1 18 13 14 15 35 30 46
34 12 3 22 11 22 16 0 5 7 9 15 9 8 0 15 5 15 10 0 6 6 10 13 10 7 0 23 9 35
20 12 12 22 18 22 15 0 -4 7 0 15 7 33 30 45 38 55 38 5 0 10 5 10 11 0 5 5 7
10 4 6 -3 13 1 16 9 3 9 12 16 20 16 8 0 14 5 14 11 0 5 4 8 9 5 5 -3 11 0 14
7 3 7 23 22 46 32 22 11 41 23 41 27 0 3 20 18 44 32 25 14 52 33 60 42 9 8
16 13 16 10 0 -3 11 4 24 15 13 12 27 20 31 19 4 -1 15 9 26 21 10 12 19 19
19 16 0 -4 11 3 24 14 13 12 27 20 30 20 4 -1 18 10 32 24 14 14 30 23 35 20
5 -4 9 -2 9 3 0 5 19 24 42 42 23 19 38 27 34 19 -4 -8 1 -4 10 8 9 13 22 23
29 23 7 0 16 7 19 16 3 8 10 13 15 10 5 -3 11 1 15 9 3 8 13 15 22 15 10 0 14
3 11 7 -9 8 44 44 54 37 4 -2 11 1 15 7 5 8 3 9 -6 4 -9 -5 -11 -4 -6 3 4 7
14 12 22 12 8 0 14 4 14 9 0 5 15 18 33 29 32 20 60 41 102 77 13 11 33 27 45
35 12 8 33 25 47 38 13 12 29 20 34 16 5 -3 8 -2 7 3 -2 4 0 9 5 10 4 2 18 13
31 25 13 13 38 34 56 48 18 14 41 33 51 43 11 9 19 15 19 13 0 -3 16 11 36 30
20 18 41 31 47 27 5 -3 7 -2 4 4 -3 5 3 16 15 24 11 8 27 20 34 27 8 7 14 11
14 8 0 -3 16 10 35 29 19 19 38 35 42 35 5 0 16 8 24 18 26 29 69 62 80 62 5
0 8 4 5 9 -6 10 23 26 39 22 5 -2 7 1 3 5 -8 7 -3 12 73 74 24 19 53 45 66 57
12 13 24 23 27 23 2 0 20 15 39 33 19 17 56 50 82 72 26 22 55 48 63 58 9 9
22 17 30 17 7 0 11 4 7 9 -3 5 4 12 15 16 11 4 18 10 15 15 -3 5 4 11 15 15
11 3 20 11 20 16 0 6 5 7 10 4 6 -4 9 -3 8 2 -4 11 88 94 95 86 4 -3 7 -1 7 6
0 7 7 19 15 27 8 9 15 13 15 9 0 -3 12 7 26 22 15 15 31 27 36 25 5 -1 7 1 4
6 -3 5 20 31 51 58 31 27 63 57 72 67 8 9 21 17 28 17 6 0 15 5 19 12 5 7 3 8
-7 3 -8 -5 -5 1 5 13 21 24 30 29 21 10 -4 -7 1 -4 9 6 9 11 16 24 16 30 0 5
3 7 6 3 4 -3 22 11 41 31 20 20 40 36 45 34 5 -1 8 1 5 5 -2 5 11 22 30 40 18
17 33 30 33 28 0 -2 28 24 62 58 33 34 58 56 53 48 -5 -9 -4 -12 3 -7 7 4 12
12 12 18 0 6 20 29 44 52 23 23 77 74 119 113 42 40 81 73 87 73 5 0 9 4 8 8
-4 12 55 68 67 64 5 -2 7 -1 3 3 -9 10 24 45 35 38 6 -3 8 -2 5 3 -3 5 25 39
63 76 38 37 69 65 69 61 0 -4 14 12 30 35 17 22 40 44 51 47 10 4 17 11 14 16
-4 5 1 9 10 9 9 0 14 4 10 9 -3 5 4 12 15 16 11 4 18 11 15 16 -4 5 0 9 7 9 7
0 22 13 33 29 11 17 21 29 22 27 6 -6 169 159 165 167 -2 4 1 7 6 7 10 0 309
296 330 326 16 24 44 85 46 101 1 7 5 15 8 19 4 3 4 12 2 19 -3 7 -2 15 3 18
12 7 8 155 -6 204 -6 23 -18 49 -26 57 -8 8 -15 19 -15 25 0 6 -4 11 -8 11 -5
0 -15 11 -22 25 -7 14 -19 25 -27 25 -7 0 -13 6 -13 14 0 7 -8 20 -17 27 -16
12 -17 12 -8 -1 6 -9 -1 -4 -14 10 -13 14 -20 18 -16 10 5 -13 4 -13 -7 0 -7
9 -31 24 -53 34 -22 10 -51 23 -65 30 -35 16 -104 13 -195 -8 -5 -1 -27 -10
-49 -19 -21 -9 -45 -17 -52 -17 -8 0 -14 -5 -14 -10 0 -6 -3 -9 -7 -8 -5 1
-22 -5 -39 -15 -17 -9 -34 -13 -38 -10 -3 4 -6 1 -6 -5 0 -7 -7 -12 -15 -12
-8 0 -15 -4 -15 -10 0 -5 -6 -10 -14 -10 -17 0 -80 -32 -84 -42 -2 -5 -12 -8
-23 -8 -10 0 -19 -5 -19 -11 0 -5 -4 -7 -10 -4 -5 3 -10 3 -10 -2 0 -4 -11
-13 -25 -20 -19 -8 -24 -8 -19 0 3 7 -1 4 -10 -7 -8 -10 -20 -15 -27 -10 -8 4
-10 3 -5 -4 5 -8 0 -12 -13 -12 -12 0 -21 -4 -21 -10 0 -5 -6 -10 -13 -10 -7
0 -47 -18 -89 -40 -41 -21 -78 -36 -82 -33 -3 4 -6 1 -6 -6 0 -7 -4 -9 -10 -6
-5 3 -10 1 -10 -5 0 -6 -4 -8 -10 -5 -5 3 -10 1 -10 -5 0 -6 -4 -8 -10 -5 -5
3 -10 1 -10 -5 0 -6 -4 -8 -10 -5 -5 3 -10 1 -10 -4 0 -6 -3 -10 -7 -9 -5 1
-21 -5 -38 -12 -16 -7 -33 -13 -37 -12 -5 1 -8 -2 -8 -8 0 -6 -3 -9 -7 -8 -5
1 -22 -5 -39 -15 -17 -9 -34 -13 -38 -10 -3 4 -6 0 -6 -7 0 -7 -3 -11 -6 -7
-4 3 -13 -1 -21 -9 -8 -8 -18 -12 -23 -9 -5 3 -11 1 -15 -5 -4 -6 -11 -8 -16
-5 -5 4 -9 1 -9 -5 0 -7 -6 -10 -12 -7 -7 2 -18 -2 -23 -10 -6 -8 -20 -15 -33
-16 -12 0 -22 -5 -22 -9 0 -4 -3 -7 -7 -6 -5 1 -18 -3 -29 -10 -12 -6 -24 -8
-28 -5 -3 3 -6 1 -6 -5 0 -7 -9 -12 -19 -12 -11 0 -23 -5 -26 -10 -4 -6 -11
-8 -16 -5 -5 4 -9 1 -9 -4 0 -6 -9 -11 -19 -11 -11 0 -23 -5 -26 -11 -4 -6
-13 -8 -21 -5 -8 3 -14 2 -14 -3 0 -5 -10 -12 -22 -16 -13 -4 -26 -8 -30 -10
-19 -6 -23 -7 -30 -6 -5 0 -8 -4 -8 -10 0 -6 -6 -9 -14 -6 -8 3 -16 1 -18 -4
-2 -6 -12 -12 -23 -14 -11 -2 -21 -4 -22 -5 -2 -2 -6 -3 -10 -4 -5 -1 -18 -7
-29 -14 -12 -6 -24 -8 -28 -5 -3 3 -6 1 -6 -6 0 -7 -4 -10 -9 -6 -5 3 -12 1
-15 -4 -5 -7 -55 -22 -72 -20 -4 0 -10 -4 -14 -11 -4 -6 -18 -12 -31 -13 -13
-1 -30 -7 -37 -14 -12 -12 -34 -17 -54 -14 -5 0 -8 -3 -8 -9 0 -6 -3 -9 -7 -8
-5 0 -17 -2 -28 -6 -63 -24 -96 -36 -103 -37 -4 -1 -17 -5 -30 -10 -13 -5 -35
-12 -50 -15 -15 -4 -33 -11 -39 -17 -7 -5 -13 -6 -13 -2 0 4 -7 2 -15 -5 -8
-7 -15 -9 -15 -5 0 4 -7 2 -15 -5 -8 -7 -15 -9 -15 -5 0 4 -6 3 -13 -3 -12
-10 -54 -22 -84 -24 -7 -1 -13 -6 -13 -11 0 -6 -3 -8 -6 -4 -3 3 -25 -1 -47
-10 -23 -8 -49 -16 -57 -18 -8 -2 -17 -4 -20 -6 -3 -1 -9 -3 -15 -4 -5 -2 -12
-4 -15 -5 -3 -1 -12 -3 -20 -5 -8 -2 -59 -17 -112 -33 -54 -17 -98 -28 -98
-26 0 1 -15 -3 -32 -11 -18 -7 -36 -14 -40 -14 -5 -1 -9 -1 -10 -2 -10 -3 -46
-11 -63 -13 -11 -2 -20 -4 -20 -5 0 -3 -12 -6 -53 -15 -12 -3 -25 -7 -30 -9
-4 -3 -25 -8 -47 -12 -46 -8 -69 -13 -72 -15 -2 -2 -11 -3 -20 -4 -10 -1 -27
-5 -38 -9 -11 -4 -37 -9 -59 -11 -21 -3 -46 -8 -55 -10 -15 -5 -67 -14 -121
-21 -14 -2 -25 -4 -25 -5 0 -2 -21 -6 -69 -14 -21 -3 -43 -9 -48 -12 -13 -9
-38 16 -38 38 0 10 4 17 9 14 5 -3 12 1 15 9 3 8 9 14 13 13 9 -3 58 27 92 56
15 13 21 15 17 6 -5 -9 -2 -8 7 3 8 9 18 17 24 17 5 0 20 10 33 23 14 12 28
21 32 19 5 -1 8 2 8 7 0 5 29 28 65 51 36 23 65 47 65 52 0 5 5 6 10 3 6 -3
10 -3 10 2 0 4 17 19 38 33 20 14 42 29 49 35 58 47 100 75 107 70 3 -3 4 -2
1 2 -4 6 33 38 45 38 5 0 40 28 65 52 7 7 15 9 19 6 3 -3 8 2 12 11 3 9 10 16
16 16 5 0 15 6 22 12 8 7 24 20 36 28 12 8 28 20 35 27 7 7 15 10 18 7 3 -3
11 4 17 16 6 12 14 19 17 17 2 -3 13 2 23 11 35 32 50 43 50 36 0 -3 9 4 21
17 11 13 18 17 14 9 -4 -8 3 -4 14 10 11 14 21 21 21 16 0 -5 9 1 20 14 11 13
20 20 20 15 0 -4 12 4 26 18 15 15 31 24 37 20 6 -3 7 -1 3 5 -7 11 6 17 27
13 5 -1 6 2 4 6 -3 5 7 17 21 27 16 12 23 14 18 5 -4 -8 2 -3 14 11 12 14 26
25 31 25 6 0 13 5 17 10 4 6 23 22 42 35 19 13 38 29 42 35 4 5 8 6 8 1 0 -5
9 1 20 14 11 13 20 20 20 15 0 -4 9 3 21 16 11 13 18 17 14 9 -4 -8 1 -6 9 4
9 11 16 17 16 13 0 -3 14 7 31 24 17 16 35 26 42 23 7 -4 9 -4 5 1 -9 10 94
85 106 77 5 -3 6 0 2 6 -4 8 3 16 18 22 14 5 26 15 26 21 0 7 3 9 6 6 4 -4 15
3 25 15 11 11 19 18 19 15 0 -3 14 7 32 23 17 16 34 27 37 25 2 -3 11 4 18 15
8 11 18 18 23 15 4 -3 10 1 13 8 3 7 24 26 48 42 24 16 56 40 72 54 15 14 27
22 27 19 0 -3 14 7 31 23 17 16 35 26 40 23 5 -3 9 2 9 10 0 9 4 16 8 16 8 0
27 14 72 52 8 7 16 12 17 11 3 -3 13 6 64 52 9 8 19 15 24 15 4 0 16 10 26 22
11 11 19 18 19 15 0 -3 11 4 24 16 59 55 79 71 72 57 -5 -8 3 -2 18 14 14 16
26 26 26 21 0 -4 10 4 21 19 12 15 23 25 26 22 3 -3 15 5 28 17 40 40 75 67
75 59 0 -4 5 1 11 11 6 9 16 14 22 11 7 -4 9 -4 5 1 -7 7 14 35 28 35 4 0 17
10 29 23 12 12 36 33 54 47 18 14 46 38 62 53 16 16 29 25 29 21 0 -4 7 1 16
12 8 10 12 13 8 5 -5 -9 -3 -12 4 -7 7 4 12 13 12 19 0 13 40 43 53 39 5 -1 6
2 2 8 -3 5 1 10 10 10 9 0 14 4 11 9 -6 9 22 26 37 22 5 -1 6 2 4 6 -2 5 5 17
16 28 11 12 17 14 13 5 -4 -8 2 -3 14 13 12 15 26 24 31 21 5 -3 8 0 7 6 -2 7
6 17 17 23 11 7 30 23 42 37 13 14 23 22 23 18 0 -4 18 12 40 34 22 23 40 39
40 36 0 -4 15 9 34 27 18 19 38 35 45 35 7 0 9 5 6 10 -3 5 -2 10 2 10 5 0 28
18 51 40 23 23 42 38 42 34 0 -4 9 4 21 17 12 13 26 23 31 21 5 -1 8 1 5 5 -2
5 11 23 29 41 19 18 34 29 34 26 0 -4 9 4 21 17 12 13 26 23 31 21 5 -1 7 2 3
8 -3 5 5 15 19 21 14 7 23 16 20 20 -3 5 -1 9 4 9 4 0 31 21 59 48 77 72 107
97 116 94 4 -1 6 1 5 5 -5 16 136 145 147 135 4 -4 5 -2 4 3 -2 6 14 28 35 50
22 22 33 31 25 20 -13 -18 -13 -19 4 -6 9 7 17 20 17 29 0 8 3 13 6 9 3 -3 17
7 31 24 14 16 30 26 36 22 7 -3 9 -3 5 1 -9 11 23 46 35 39 6 -3 8 -2 5 3 -3
5 25 39 63 75 38 36 69 65 69 63 0 -1 44 41 98 94 53 53 100 96 105 94 4 -1 6
1 5 5 -4 10 45 59 55 55 4 -1 6 1 5 5 -4 11 39 53 46 45 3 -3 6 0 6 7 0 15
111 127 123 123 4 -1 6 2 5 7 -2 5 6 17 17 27 11 11 37 38 57 61 20 23 38 40
40 38 2 -1 14 9 28 23 14 13 18 21 10 17 -8 -4 1 8 20 28 19 19 39 33 45 29 5
-3 7 -2 3 2 -9 11 23 46 36 39 6 -3 8 -3 4 2 -4 4 7 23 26 41 19 18 32 35 30
37 -3 2 3 10 13 18 14 12 16 12 8 0 -5 -10 -4 -12 3 -7 7 4 12 11 12 17 0 5
26 37 58 70 31 34 69 74 83 89 14 15 36 42 48 59 12 17 27 29 32 26 5 -4 9 -2
9 4 0 5 11 22 25 37 14 15 38 43 52 61 14 18 30 30 35 27 5 -3 7 -1 6 5 -2 5
6 17 17 26 11 9 13 13 5 9 -8 -4 10 17 40 46 30 30 48 50 40 45 -8 -4 -6 1 5
12 11 11 23 18 28 16 4 -2 6 0 5 6 -2 5 6 17 17 26 11 9 13 13 5 9 -8 -4 -4 4
10 18 14 15 45 50 70 79 25 29 53 61 63 71 9 10 17 23 17 29 0 5 5 7 10 4 6
-3 10 -1 10 6 0 7 7 19 15 28 61 64 85 92 86 99 1 4 5 6 11 4 5 -1 7 1 4 6 -2
4 12 26 32 48 20 21 37 42 37 45 0 3 7 13 15 21 8 9 26 30 40 48 14 18 30 37
36 44 6 6 16 22 23 34 7 12 16 20 22 17 5 -4 9 1 9 9 0 9 5 16 11 16 5 0 7 5
4 10 -3 6 1 13 9 16 9 3 16 12 16 20 0 8 3 14 8 14 4 0 16 13 27 29 10 16 23
27 27 25 5 -3 7 -2 6 3 -3 8 49 83 67 95 5 4 10 12 10 17 0 5 11 19 24 30 13
12 20 21 16 21 -4 0 2 8 13 19 12 10 22 22 22 27 0 5 15 25 33 45 17 21 41 50
52 65 11 16 31 39 44 51 13 13 20 23 16 23 -5 0 5 12 21 26 16 15 22 23 14 19
-8 -4 -5 3 7 16 12 13 33 36 47 51 14 16 22 28 19 28 -4 0 3 9 15 20 12 12 22
25 22 30 0 6 7 10 16 10 8 0 13 4 10 9 -3 5 7 22 23 39 16 17 27 33 24 36 -3
3 2 8 11 12 10 4 22 18 27 31 5 15 14 21 21 17 7 -4 8 -3 4 5 -4 6 0 14 8 17
9 3 14 10 11 15 -3 4 4 13 16 19 11 7 18 14 16 17 -6 5 13 30 51 70 12 13 22
27 22 31 0 4 8 15 18 24 27 26 42 46 42 57 0 6 9 16 20 23 11 7 20 17 20 23 0
6 11 19 25 29 13 10 22 22 19 27 -2 5 4 14 16 21 11 7 20 17 20 22 0 5 7 16
15 25 52 57 61 67 64 76 2 6 7 9 12 8 5 -2 8 0 7 5 -4 10 63 102 74 102 4 0 7
6 5 13 -1 6 4 11 11 9 8 -1 11 2 8 7 -4 5 3 16 14 24 11 7 17 17 14 20 -4 4 1
9 10 13 9 3 14 10 11 14 -3 5 4 15 15 23 11 7 17 16 14 20 -3 3 4 10 15 17 12
6 19 15 16 20 -3 5 1 12 8 17 8 4 26 27 42 51 15 23 32 42 36 42 5 0 8 6 6 13
-1 6 4 11 11 9 8 -1 11 1 8 6 -3 4 7 21 21 38 13 16 31 41 39 57 8 15 19 27
24 27 6 0 10 7 10 15 0 8 9 19 20 25 11 6 18 15 15 21 -4 5 -1 9 4 9 6 0 11 5
11 10 0 11 10 24 43 61 9 10 14 19 10 19 -3 0 4 9 17 20 13 11 19 20 14 20 -5
0 -1 5 9 11 9 5 17 17 17 24 0 8 5 15 10 15 6 0 10 6 10 14 0 8 7 16 15 20 8
3 14 11 13 18 -2 7 3 12 10 10 8 -1 11 2 7 7 -3 6 3 19 15 31 11 11 20 23 20
26 0 3 13 23 28 43 16 20 32 44 35 54 4 9 10 17 15 17 5 0 15 13 22 30 7 16
16 30 19 30 4 0 15 16 24 35 9 19 22 35 27 35 6 0 9 4 6 9 -3 5 1 12 9 15 8 3
14 9 13 13 -2 7 48 90 62 103 3 3 19 26 35 52 17 27 33 48 38 48 4 0 7 7 7 15
0 8 5 15 11 15 5 0 7 5 4 10 -3 6 1 13 9 16 9 3 13 10 10 15 -3 5 2 12 10 15
9 3 13 10 10 15 -3 5 0 9 5 9 6 0 11 6 11 14 0 8 7 16 15 20 8 3 14 9 13 13
-2 4 11 28 27 53 17 25 37 57 44 72 8 15 19 25 24 21 6 -3 7 -2 4 4 -4 5 4 21
16 34 12 13 21 26 19 29 -1 3 5 13 13 23 8 9 11 17 7 17 -4 0 -2 4 3 8 14 10
85 120 85 131 0 5 7 12 16 15 8 3 13 10 10 14 -3 5 4 19 15 30 11 12 16 22 12
22 -4 0 -1 5 7 10 8 5 15 13 15 17 0 4 19 36 43 71 23 35 42 67 42 71 0 4 8
16 18 27 9 10 26 36 37 57 11 20 23 37 28 37 4 0 5 5 2 10 -3 6 1 13 9 16 9 3
13 10 10 15 -3 5 0 9 6 9 6 0 9 4 6 8 -3 5 6 20 20 35 14 15 23 27 20 27 -5 0
34 63 53 86 6 7 7 15 4 18 -4 3 -2 6 3 6 5 0 18 17 29 38 11 20 29 45 40 54
11 10 16 17 12 18 -10 0 31 71 47 82 6 4 7 8 2 8 -6 0 -1 7 10 16 10 8 13 12
6 9 -11 -6 -11 -3 -1 13 7 12 15 19 18 17 2 -3 13 12 23 33 23 46 43 82 60
105 16 22 51 80 77 128 11 19 27 41 35 48 9 7 13 17 10 22 -3 5 0 9 7 9 7 0
10 3 6 6 -6 6 38 72 56 85 5 3 8 9 8 13 -3 20 0 26 11 20 6 -4 8 -3 4 4 -3 6
0 16 7 24 7 7 14 18 15 23 1 6 8 17 16 27 8 9 12 19 9 22 -4 3 -1 6 5 6 7 0
12 5 12 11 0 6 15 34 34 62 18 29 46 73 61 100 15 26 31 47 37 47 5 0 7 4 3 9
-3 6 3 14 12 20 10 6 14 11 10 11 -8 0 30 70 44 80 3 3 9 15 13 28 4 12 12 22
17 22 6 0 7 5 4 10 -3 6 -1 10 4 10 6 0 11 7 11 15 0 8 5 15 10 15 6 0 10 7
10 15 0 8 5 15 11 15 5 0 8 4 5 8 -3 5 5 19 17 33 12 14 23 31 25 39 2 8 8 17
13 18 5 2 7 8 3 13 -3 5 0 9 5 9 6 0 11 7 11 16 0 8 4 12 10 9 6 -3 7 1 4 9
-3 9 -2 16 4 16 5 0 15 13 22 30 7 16 16 27 21 24 5 -3 6 2 3 10 -3 9 -1 16 5
16 6 0 11 7 11 16 0 8 5 12 10 9 6 -3 10 1 10 9 0 17 40 89 52 94 5 2 6 8 2
13 -3 5 0 9 6 9 6 0 8 5 5 10 -3 6 -1 10 5 10 6 0 8 5 5 10 -3 6 -1 10 4 10 6
0 10 3 9 8 -1 4 4 21 11 37 15 40 18 48 19 58 0 4 8 20 17 34 10 14 12 22 4
18 -8 -6 -10 -4 -3 6 15 24 16 40 19 169 2 72 -1 130 -7 137 -6 7 -8 20 -4 28
3 8 1 15 -5 15 -6 0 -8 4 -4 9 3 5 1 12 -5 16 -6 4 -8 10 -5 15 3 5 1 11 -5
15 -6 4 -8 11 -5 16 4 5 1 9 -4 9 -6 0 -11 7 -11 15 0 8 -4 15 -8 15 -5 0 -14
11 -21 24 -7 13 -25 30 -40 37 -14 8 -28 17 -31 21 -13 17 -103 25 -170 15
-25 -4 -48 -6 -51 -5 -3 2 -12 -2 -20 -9 -8 -6 -26 -14 -39 -16 -14 -3 -41
-12 -60 -20 -19 -9 -59 -26 -87 -39 -29 -13 -53 -27 -53 -31 0 -5 -4 -5 -10
-2 -5 3 -10 2 -10 -3 0 -5 -13 -15 -30 -22 -16 -7 -30 -16 -30 -21 0 -5 -6 -9
-13 -9 -7 0 -18 -9 -25 -20 -7 -11 -18 -20 -25 -20 -7 0 -21 -11 -31 -25 -10
-13 -22 -22 -27 -19 -5 3 -9 0 -9 -6 0 -13 -99 -110 -112 -110 -5 0 -6 -4 -3
-10 3 -5 2 -10 -3 -10 -6 0 -27 -17 -48 -37 -20 -21 -42 -37 -48 -35 -6 2 -8
1 -4 -3 9 -10 -24 -45 -35 -38 -6 3 -8 2 -5 -3 3 -5 -10 -23 -29 -41 -18 -17
-33 -30 -33 -28 0 2 -24 -21 -54 -51 -30 -30 -60 -54 -66 -54 -6 0 -8 -4 -5
-10 3 -6 0 -10 -7 -10 -7 0 -24 -13 -38 -29 -13 -17 -28 -28 -32 -25 -5 3 -7
0 -6 -8 2 -7 -3 -12 -10 -10 -8 1 -11 -2 -8 -7 3 -5 -11 -21 -32 -36 -20 -16
-49 -42 -64 -59 -16 -17 -28 -27 -28 -23 0 4 -18 -11 -40 -33 -22 -22 -40 -37
-40 -33 0 4 -7 -3 -16 -15 -8 -12 -22 -22 -31 -22 -9 0 -14 -3 -10 -6 8 -8
-25 -44 -40 -44 -7 0 -13 -5 -13 -11 0 -5 -4 -7 -10 -4 -5 3 -10 0 -10 -7 0
-7 -14 -22 -30 -33 -16 -11 -30 -23 -30 -27 0 -5 -4 -8 -10 -8 -5 0 -28 -18
-50 -40 -22 -22 -48 -40 -56 -40 -8 0 -13 -3 -11 -8 3 -4 -1 -13 -9 -20 -8 -7
-14 -10 -14 -7 0 3 -8 -3 -19 -12 -10 -10 -33 -29 -51 -43 -18 -14 -41 -34
-51 -44 -11 -11 -19 -16 -19 -12 0 4 -11 -5 -25 -20 -14 -15 -25 -24 -25 -20
0 4 -10 -3 -23 -16 -13 -13 -40 -34 -60 -48 -20 -14 -37 -29 -37 -33 0 -5 -4
-5 -10 -2 -5 3 -10 1 -10 -5 0 -6 -5 -8 -12 -4 -7 4 -8 3 -4 -4 4 -7 -3 -17
-18 -24 -14 -6 -26 -15 -26 -20 0 -5 -4 -6 -10 -3 -5 3 -10 2 -10 -4 0 -6 -28
-29 -62 -52 -35 -24 -66 -47 -70 -53 -5 -7 -8 -7 -8 -1 0 6 -5 2 -11 -7 -5
-10 -17 -18 -24 -18 -8 0 -15 -3 -15 -7 0 -5 -21 -21 -48 -38 -26 -16 -51 -35
-55 -42 -4 -7 -14 -13 -22 -13 -7 0 -15 -4 -17 -9 -1 -5 -10 -11 -18 -13 -8
-2 -22 -10 -30 -18 -8 -8 -24 -22 -34 -30 -18 -13 -19 -13 -12 0 4 8 -1 5 -10
-7 -9 -13 -22 -23 -29 -23 -8 0 -15 -3 -17 -7 -1 -5 -18 -19 -37 -32 -19 -13
-31 -17 -27 -10 5 10 3 9 -6 -1 -18 -21 -71 -55 -81 -52 -4 1 -10 -5 -13 -13
-4 -8 -12 -15 -20 -15 -8 0 -14 -5 -14 -11 0 -5 -4 -7 -10 -4 -5 3 -10 1 -10
-4 0 -6 -7 -11 -15 -11 -8 0 -15 -4 -15 -8 0 -5 -12 -15 -27 -23 -27 -14 -137
-81 -159 -96 -5 -5 -20 -14 -32 -20 -12 -7 -32 -19 -44 -25 -12 -7 -31 -21
-42 -30 -10 -10 -23 -15 -28 -12 -4 3 -8 1 -8 -3 0 -5 -27 -23 -60 -41 -33
-18 -62 -37 -65 -43 -4 -5 -11 -7 -16 -4 -5 4 -9 1 -9 -4 0 -6 -7 -11 -15 -11
-8 0 -15 -3 -15 -8 0 -4 -9 -13 -21 -20 -17 -11 -20 -11 -14 0 5 7 -2 3 -14
-9 -12 -13 -28 -23 -36 -23 -7 0 -15 -4 -17 -9 -1 -5 -10 -11 -18 -13 -15 -3
-22 -7 -59 -38 -13 -11 -28 -17 -32 -14 -5 3 -9 1 -9 -4 0 -5 -18 -17 -40 -28
-22 -10 -40 -22 -40 -26 0 -5 -6 -8 -14 -8 -7 0 -19 -7 -26 -15 -7 -9 -15 -13
-17 -11 -3 3 -14 -4 -26 -14 -11 -11 -24 -17 -29 -14 -4 3 -8 0 -8 -7 0 -7 -3
-10 -6 -6 -3 3 -15 -3 -27 -13 -11 -11 -24 -17 -29 -14 -4 3 -8 1 -8 -4 0 -8
-50 -36 -59 -32 -2 1 -8 -5 -13 -14 -5 -9 -13 -14 -19 -11 -5 4 -9 1 -9 -5 0
-6 -4 -8 -10 -5 -5 3 -10 1 -10 -4 0 -6 -7 -11 -15 -11 -8 0 -15 -5 -15 -11 0
-5 -4 -8 -9 -5 -5 3 -12 -1 -15 -10 -3 -8 -10 -12 -16 -9 -5 3 -10 1 -10 -6 0
-7 -3 -9 -7 -6 -3 4 -12 -1 -20 -11 -9 -10 -11 -11 -7 -2 7 13 6 13 -12 0 -10
-8 -21 -18 -24 -21 -6 -7 -66 -39 -77 -41 -5 0 -14 -8 -21 -17 -11 -13 -12
-13 -7 -1 4 10 2 9 -8 -2 -8 -10 -22 -18 -31 -18 -9 0 -19 -7 -22 -15 -3 -8
-21 -20 -40 -27 -19 -6 -34 -16 -34 -22 0 -5 -3 -7 -6 -3 -3 3 -15 -3 -27 -13
-11 -11 -24 -17 -29 -14 -4 3 -8 0 -8 -6 0 -6 -4 -9 -9 -6 -5 4 -11 3 -13 -1
-4 -11 -88 -65 -88 -57 0 3 -12 -4 -26 -15 -15 -12 -31 -21 -36 -21 -5 0 -18
-9 -30 -20 -12 -10 -25 -17 -30 -14 -4 3 -8 0 -8 -5 0 -6 -7 -11 -15 -11 -8 0
-15 -5 -15 -11 0 -6 -7 -9 -15 -5 -9 3 -19 -3 -25 -14 -7 -12 -16 -17 -27 -13
-11 4 -14 3 -9 -5 4 -7 -3 -14 -19 -18 -14 -3 -25 -10 -25 -16 0 -5 -4 -6 -10
-3 -5 3 -10 2 -10 -2 0 -5 -9 -14 -21 -21 -17 -11 -20 -11 -14 0 5 7 -2 3 -14
-10 -12 -12 -26 -20 -32 -17 -5 4 -9 2 -9 -3 0 -12 -156 -92 -164 -85 -3 4 -6
1 -6 -5 0 -7 -3 -11 -7 -10 -5 0 -30 -9 -58 -22 -27 -13 -56 -23 -62 -23 -7 0
-13 -4 -13 -8 0 -4 -13 -12 -29 -17 -25 -9 -29 -8 -24 4 3 8 9 14 15 14 5 0 7
4 3 9 -3 6 5 20 17 32 13 12 16 18 9 14 -9 -5 -6 4 7 22 12 17 22 34 22 37 0
4 17 34 38 69 20 34 43 75 51 90 8 15 18 27 23 27 4 0 8 7 8 15 0 8 5 15 11
15 5 0 8 4 4 9 -3 6 3 14 12 20 10 6 14 11 8 11 -5 0 -3 5 5 10 8 5 15 13 15
17 0 16 32 53 40 45 5 -4 5 -2 2 4 -7 13 25 58 60 87 13 10 21 23 18 28 -4 5
5 20 18 33 14 14 22 27 20 30 -3 3 2 8 11 12 9 3 16 12 16 19 0 7 10 20 23 29
12 9 15 14 7 11 -8 -4 -5 2 8 13 12 11 22 24 22 30 0 5 11 21 25 36 14 15 25
31 25 37 0 5 7 9 16 9 8 0 13 4 10 9 -3 5 5 20 19 32 13 13 25 29 25 35 0 5 8
19 18 30 9 10 31 39 47 64 31 46 52 73 72 95 7 7 9 15 6 19 -4 3 -1 6 5 6 7 0
12 7 12 15 0 8 5 15 10 15 6 0 14 8 17 18 8 19 17 32 48 64 12 13 14 18 5 14
-8 -4 -5 1 8 12 12 11 22 23 22 26 0 14 49 74 55 68 5 -4 5 -2 2 4 -3 6 3 21
14 32 11 12 17 22 13 22 -4 0 3 9 15 19 12 11 22 23 22 28 -1 4 6 16 14 26 8
9 15 20 15 23 0 3 6 12 13 19 30 34 37 45 31 45 -4 0 2 9 14 20 12 12 22 27
22 35 0 8 4 15 9 15 5 0 13 9 16 20 4 11 11 18 16 14 5 -3 9 -2 8 3 -3 19 2
34 10 29 5 -3 8 2 7 12 0 9 5 16 12 14 8 -1 11 2 8 7 -4 5 2 17 11 27 10 10
18 20 18 23 2 17 43 70 50 63 4 -4 5 1 2 10 -3 10 -2 20 3 23 13 8 70 94 70
106 0 5 5 9 10 9 6 0 10 7 10 15 0 8 5 15 10 15 6 0 10 5 10 10 0 11 39 71 53
81 5 3 8 9 8 13 -1 15 12 35 20 30 5 -3 9 -2 8 3 -4 21 2 34 13 27 8 -5 9 -2
5 9 -3 10 -2 17 3 17 6 0 10 5 10 10 0 6 9 20 20 32 10 12 17 25 14 30 -3 4 0
8 5 8 6 0 11 7 11 15 0 8 5 15 10 15 6 0 10 7 10 16 0 8 5 12 10 9 6 -3 10 2
10 13 0 10 9 28 20 40 12 12 18 22 16 22 -7 0 39 70 61 94 10 11 12 16 5 11
-11 -6 -11 -3 -1 13 7 12 17 18 23 15 5 -3 6 -1 2 5 -3 6 1 18 10 26 8 9 12
16 7 16 -4 0 0 7 10 14 10 8 18 17 18 20 -1 13 14 42 31 60 9 10 15 23 12 28
-3 4 0 8 5 8 6 0 11 7 11 15 0 8 3 15 8 15 4 0 16 18 26 40 11 22 23 40 28 40
5 0 6 5 3 10 -3 6 -1 10 5 10 6 0 8 5 5 10 -3 6 -1 10 4 10 6 0 11 7 11 15 0
8 5 15 11 15 5 0 8 4 5 8 -3 5 4 18 14 30 11 12 20 28 20 37 0 8 5 15 10 15 6
0 10 7 10 15 0 8 4 15 10 15 5 0 9 3 8 8 -3 12 25 62 34 62 5 0 6 5 3 10 -3 6
-1 10 5 10 6 0 9 4 6 8 -3 5 3 18 14 29 10 12 16 23 13 27 -3 3 2 8 11 12 9 3
14 10 11 14 -3 5 2 15 10 23 8 9 15 23 15 31 0 9 5 16 10 16 6 0 10 5 10 11 0
6 9 23 20 39 11 15 17 29 14 32 -2 3 2 11 11 18 8 7 15 19 15 26 0 8 4 14 9
14 5 0 12 14 16 30 4 17 11 30 16 30 5 0 11 11 15 25 3 14 10 25 16 25 5 0 6
5 3 10 -3 6 -1 10 5 10 6 0 8 5 5 10 -3 6 -2 10 3 10 6 0 13 11 16 25 4 14 11
25 17 25 6 0 8 4 4 9 -3 5 2 17 11 25 8 9 12 16 7 16 -4 0 -3 4 2 8 6 4 21 31
35 59 14 29 29 53 33 53 5 0 5 5 2 10 -3 6 -1 10 5 10 6 0 9 4 6 9 -3 5 1 12
10 15 8 3 13 10 9 15 -3 5 7 31 23 58 15 26 41 75 57 108 16 33 34 63 40 67 5
4 6 8 1 8 -6 0 -1 7 10 16 10 8 13 13 7 9 -8 -4 -11 -1 -7 9 3 8 12 17 20 20
9 3 12 11 9 17 -4 5 1 17 11 25 11 9 14 13 7 10 -8 -5 -8 0 0 18 7 13 14 23
17 21 3 -2 7 6 7 17 1 11 10 27 20 35 10 8 12 12 5 8 -8 -4 -6 6 5 28 10 19
21 33 25 30 4 -2 5 3 2 11 -3 9 -1 16 6 16 6 0 9 4 5 9 -3 5 2 17 11 25 8 9
13 16 10 16 -2 0 14 37 37 83 22 45 40 85 39 90 -1 4 3 7 8 7 5 0 9 3 8 8 -3
10 44 106 54 110 5 2 6 8 2 13 -3 5 0 9 5 9 6 0 10 3 9 8 -4 11 36 102 45 102
5 0 5 4 2 10 -3 5 -1 10 6 10 7 0 9 3 6 6 -3 4 -1 16 5 28 7 11 11 25 10 29
-1 4 4 10 12 13 8 3 12 12 9 20 -3 8 0 14 7 14 6 0 8 5 5 10 -3 6 -1 10 4 10
6 0 10 3 9 8 -1 4 5 21 12 37 7 17 14 32 15 35 0 3 7 16 15 30 8 14 15 27 15
30 1 3 8 19 15 35 7 17 13 33 12 38 -1 4 3 7 9 7 5 0 7 5 4 10 -3 6 -1 10 4
10 6 0 10 3 9 8 -1 4 7 27 18 52 11 25 21 47 21 50 0 3 6 16 13 30 8 14 13 28
12 33 -1 4 3 7 9 7 5 0 7 5 4 10 -3 6 -1 10 5 10 6 0 8 5 5 10 -3 6 -1 10 6
10 7 0 9 3 6 6 -3 4 -1 16 5 28 7 11 13 23 14 26 0 3 9 23 19 45 22 47 21 44
30 73 4 12 11 22 16 22 5 0 6 7 3 15 -4 8 -1 15 6 15 6 0 8 5 5 10 -3 6 -1 10
4 10 6 0 10 3 9 8 -2 9 8 35 33 88 10 23 19 46 19 53 0 6 5 11 12 11 6 0 8 3
5 6 -3 4 -1 16 5 28 7 11 11 24 10 29 -1 4 3 7 10 7 6 0 8 3 5 7 -4 3 1 15 10
26 10 11 12 17 6 13 -9 -5 -11 -2 -7 8 3 9 10 13 15 10 5 -3 6 1 3 9 -3 8 2
22 11 31 9 9 13 16 9 16 -3 0 -1 6 5 13 6 8 8 17 4 20 -3 4 -1 7 5 7 7 0 11 3
10 8 -4 13 23 82 32 82 5 0 7 7 4 15 -4 8 -1 15 5 15 6 0 10 3 9 8 -1 4 6 25
16 47 10 22 19 48 21 57 2 9 9 27 16 40 7 13 12 26 11 31 -1 4 3 7 8 7 6 0 10
6 10 14 0 7 8 31 17 52 9 22 16 42 15 47 -1 4 3 7 10 7 6 0 8 3 5 6 -3 4 -1
16 5 28 7 11 11 24 10 29 -1 4 3 7 8 7 5 0 9 3 9 8 -1 4 0 10 1 15 1 4 3 10 4
15 1 4 12 30 25 57 13 28 25 55 27 62 6 29 70 179 79 185 5 4 6 8 2 8 -4 0 -2
10 5 23 7 12 13 25 14 30 1 4 3 9 4 12 1 3 3 8 5 13 1 4 8 21 15 37 7 17 14
35 15 41 2 5 15 36 29 69 15 32 30 71 33 86 3 16 9 26 14 23 5 -3 8 -2 7 3 -4
13 25 102 32 98 3 -2 6 4 7 13 1 9 7 31 14 47 7 17 12 33 11 38 -1 4 3 7 8 7
5 0 9 3 9 8 -1 4 0 10 1 15 1 4 3 10 5 15 1 4 7 20 13 35 7 16 12 35 12 43 0
8 5 14 11 14 5 0 8 4 4 9 -3 5 -1 12 5 16 6 4 8 11 5 16 -4 5 -1 9 5 9 7 0 10
7 6 15 -3 8 0 15 6 15 6 0 8 3 5 6 -3 4 -1 16 5 28 7 11 13 24 14 29 1 4 3 9
4 12 4 8 7 24 9 41 0 8 5 13 9 10 4 -2 8 3 9 12 1 9 7 31 14 47 7 17 14 39 16
49 2 11 8 25 13 31 5 7 7 15 3 18 -3 4 -1 7 5 7 7 0 11 3 11 8 -4 20 15 71 24
65 5 -3 7 -1 3 5 -3 6 -1 23 5 39 6 15 11 30 11 33 0 3 5 14 11 25 6 11 10 26
9 33 -2 6 3 12 9 12 7 0 10 3 7 6 -3 3 5 33 19 67 13 34 27 73 29 87 3 13 10
30 16 37 6 7 7 13 3 13 -4 0 -2 6 4 13 6 8 8 17 4 20 -3 4 -1 7 6 7 7 0 9 4 6
10 -3 5 0 20 7 32 7 13 11 27 10 32 -2 4 2 14 8 20 5 7 7 16 3 19 -3 4 0 7 7
7 7 0 11 3 8 6 -4 3 7 44 23 90 16 46 29 91 29 100 0 8 4 13 9 10 5 -4 8 2 6
11 -1 10 0 23 4 28 3 6 6 13 7 18 1 4 3 9 4 12 1 3 4 10 5 15 1 6 4 12 5 15 1
3 3 8 4 13 2 6 15 50 32 102 3 8 5 16 5 18 -1 1 5 18 13 37 8 19 13 35 10 35
-3 0 0 9 6 21 7 11 14 33 16 47 3 15 9 28 14 30 5 2 7 9 4 17 -3 7 1 27 10 43
8 16 13 32 10 35 -3 3 2 19 11 36 8 17 13 31 10 31 -3 0 1 16 9 35 8 19 13 35
11 35 -3 0 0 12 6 28 10 24 14 41 22 77 2 6 6 16 10 23 5 6 6 12 2 12 -3 0 1
16 9 35 8 19 13 35 11 35 -3 0 0 12 6 28 6 15 13 36 15 47 10 42 13 50 14 50
1 0 3 9 5 19 2 11 7 31 11 45 4 14 7 29 6 34 -1 4 2 7 6 7 4 0 8 8 9 18 0 9 4
28 8 42 3 14 7 30 9 37 1 7 5 15 8 19 4 3 4 12 1 20 -3 8 0 14 7 14 7 0 10 7
7 15 -4 8 -2 17 2 19 5 3 9 17 9 32 0 14 3 29 8 33 5 3 10 22 12 41 1 19 8 37
14 41 6 4 7 12 4 18 -4 6 -4 17 1 24 4 6 8 17 10 22 2 9 6 29 18 75 3 11 7 29
10 40 3 11 8 30 11 43 3 12 6 28 6 35 1 6 4 12 8 12 3 0 6 8 7 18 0 9 4 28 7
42 4 14 9 36 12 49 3 13 9 31 13 40 5 9 6 21 4 28 -2 6 0 14 6 17 6 4 8 13 4
21 -3 8 -1 15 5 15 6 0 9 8 7 18 -1 9 1 25 6 34 5 9 12 34 15 55 3 21 9 40 13
43 3 3 7 14 8 25 2 28 12 77 20 95 8 20 8 19 17 70 5 25 13 51 18 58 6 6 8 12
5 12 -3 0 -1 16 5 36 5 20 12 45 14 55 2 11 6 28 9 39 3 11 7 28 9 38 2 9 9
37 16 62 11 40 18 71 24 107 1 7 5 15 8 19 4 3 4 12 1 20 -3 8 -1 14 4 14 5 0
10 10 10 23 1 21 10 62 13 62 2 0 6 18 14 62 3 18 10 43 16 57 5 15 7 26 5 26
-2 0 0 11 5 26 6 14 12 37 15 52 3 15 7 38 10 52 4 14 7 30 9 37 1 7 5 15 8
19 4 3 4 12 1 20 -3 8 -1 14 3 14 5 0 10 19 11 42 2 23 6 44 10 47 5 3 10 17
12 31 4 33 9 55 11 55 1 0 4 16 7 35 2 19 8 37 11 40 4 3 7 14 6 25 0 11 2 25
5 30 3 6 6 15 8 20 1 6 4 19 6 30 3 11 8 39 12 63 4 23 11 42 16 42 4 0 6 7 3
15 -4 8 -1 21 5 29 6 7 9 20 5 29 -3 8 -1 18 5 21 6 4 8 13 5 20 -3 8 -1 17 5
20 6 4 8 13 5 20 -3 8 0 17 5 21 6 3 9 10 6 15 -2 4 1 27 8 51 8 24 14 47 15
52 1 4 2 8 3 10 0 1 2 11 4 22 2 11 5 29 8 40 16 64 37 159 42 188 3 17 9 41
12 52 4 11 7 27 9 35 1 8 5 33 9 55 4 22 8 46 8 53 0 6 3 12 6 12 3 0 7 17 9
38 2 35 9 77 12 77 1 0 3 14 5 30 2 17 6 41 9 55 4 14 8 43 11 65 3 22 8 51
11 65 3 14 7 41 10 60 5 37 12 75 14 75 1 0 8 65 12 113 1 6 4 12 7 12 3 0 6
15 7 33 0 17 3 48 7 67 3 19 9 58 13 85 3 28 8 59 10 70 2 11 6 38 9 60 7 48
13 80 15 80 1 0 3 16 5 35 2 19 7 46 10 60 3 14 8 45 11 70 5 49 12 85 14 85
1 0 3 14 5 30 2 17 6 44 10 60 4 17 7 37 7 45 0 8 2 22 5 30 3 8 7 26 8 40 1
14 4 25 5 25 1 0 4 11 5 25 2 14 6 43 9 65 4 22 9 54 11 70 2 17 7 41 11 55 3
14 7 39 9 55 4 35 11 76 20 125 4 19 9 46 10 60 2 14 7 41 10 60 4 19 8 46 10
60 4 30 15 95 21 124 2 11 7 40 10 62 2 23 7 53 10 65 3 13 7 40 9 59 3 19 7
46 9 59 3 13 8 49 11 80 4 31 9 65 12 76 3 11 7 31 9 45 1 14 5 45 9 70 4 25
8 56 10 70 2 14 6 48 10 75 4 28 8 61 10 75 2 14 6 45 9 70 3 25 8 65 11 90 3
25 8 61 10 80 3 19 8 62 11 95 3 33 8 74 10 90 2 17 6 57 9 90 4 33 8 76 10
95 3 19 7 62 10 95 3 33 7 78 10 100 2 22 7 69 10 105 3 36 7 88 10 115 3 28
7 75 10 105 2 30 6 82 10 115 3 33 8 87 11 120 3 33 7 78 9 100 3 40 11 129
19 235 2 30 4 55 5 55 2 0 11 209 15 361 2 67 7 127 11 134 6 9 4 11 -5 5 -9
-5 -11 -4 -6 3 4 7 9 63 12 124 3 62 7 129 9 148 3 19 7 62 10 95 2 33 7 78
10 100 3 22 7 65 10 95 5 58 11 127 21 225 9 89 13 142 19 220 3 39 7 93 10
120 2 28 7 88 11 135 3 47 7 103 9 125 5 66 20 292 30 475 10 177 19 379 31
710 8 230 8 1421 -1 1500 -3 36 -8 88 -10 115 -1 28 -5 57 -8 65 -3 8 -5 22
-5 30 1 17 -9 83 -18 120 -3 14 -6 31 -6 38 -1 6 -5 12 -10 12 -4 0 -8 3 -7 8
2 15 -14 52 -23 52 -5 0 -6 5 -3 10 3 6 1 10 -4 10 -6 0 -11 5 -11 10 0 6 -13
24 -29 39 -16 16 -27 32 -24 35 4 3 -1 6 -10 6 -9 0 -17 7 -17 16 0 8 -4 12
-10 9 -5 -3 -17 3 -27 14 -9 11 -20 18 -25 15 -4 -3 -8 0 -8 5 0 6 -5 11 -12
11 -6 0 -20 8 -31 18 -11 9 -17 11 -13 5 5 -9 2 -11 -8 -7 -9 3 -16 10 -16 15
0 4 -6 6 -13 3 -8 -3 -32 -1 -55 4 -22 5 -42 8 -44 6z"/>
</g>
</svg>
